<svg width="1120" height="226" viewBox="0 0 1120 226" fill="none" xmlns="http://www.w3.org/2000/svg">
<path fill-rule="evenodd" clip-rule="evenodd" d="M1.15278e-06 186.042C2.53756 187.124 5.12424 188.15 7.76066 189.119C78.9137 215.261 185.856 198.79 307.083 180.12C406.825 164.759 516.238 147.908 623.343 152.077C724.678 156.021 823.987 178.165 909.247 197.177C1000.51 217.528 1075.68 234.289 1120 221.297V12C1120 5.3726 1114.63 1.48247e-05 1108 1.47285e-05L12 0C5.37259 0 3.85596e-06 5.37259 3.7598e-06 12L1.15278e-06 186.042Z" fill="url(#paint0_linear_932_19259)"/>
<defs>
<linearGradient id="paint0_linear_932_19259" x1="0" y1="112.936" x2="1120" y2="112.936" gradientUnits="userSpaceOnUse">
<stop stop-color="#03BCDB"/>
<stop offset="1" stop-color="#03DBCE"/>
</linearGradient>
</defs>
</svg>
