<svg width="10" height="11" viewBox="0 0 10 11" fill="none" xmlns="http://www.w3.org/2000/svg">
<path d="M3.01786 0.380059C3.13839 0.147125 3.38616 0 3.65625 0H6.34375C6.61384 0 6.86161 0.147125 6.98214 0.380059L7.14286 0.6875H9.28571C9.6808 0.6875 10 0.995371 10 1.375C10 1.75463 9.6808 2.0625 9.28571 2.0625H0.714286C0.319866 2.0625 0 1.75463 0 1.375C0 0.995371 0.319866 0.6875 0.714286 0.6875H2.85714L3.01786 0.380059ZM0.694196 2.75H9.28571V9.625C9.28571 10.3834 8.64509 11 7.85714 11H2.12277C1.35379 11 0.694196 10.3834 0.694196 9.625V2.75ZM2.47991 4.46875V9.28125C2.47991 9.47031 2.66071 9.625 2.83705 9.625C3.05357 9.625 3.1942 9.47031 3.1942 9.28125V4.46875C3.1942 4.27969 3.05357 4.125 2.83705 4.125C2.66071 4.125 2.47991 4.27969 2.47991 4.46875ZM4.62277 4.46875V9.28125C4.62277 9.47031 4.80357 9.625 4.97991 9.625C5.19643 9.625 5.35714 9.47031 5.35714 9.28125V4.46875C5.35714 4.27969 5.19643 4.125 4.97991 4.125C4.80357 4.125 4.62277 4.27969 4.62277 4.46875ZM6.78571 4.46875V9.28125C6.78571 9.47031 6.94643 9.625 7.14286 9.625C7.33929 9.625 7.5 9.47031 7.5 9.28125V4.46875C7.5 4.27969 7.33929 4.125 7.14286 4.125C6.94643 4.125 6.78571 4.27969 6.78571 4.46875Z" fill="#03BCDB"/>
</svg>
