<svg width="11" height="11" viewBox="0 0 11 11" fill="none" xmlns="http://www.w3.org/2000/svg">
<path d="M10.5338 0.868344C11.0043 1.33821 11.0043 2.10004 10.5338 2.56991L9.88926 3.21659L7.78379 1.11155L8.43047 0.465727C8.90098 -0.00420068 9.66152 -0.00420068 10.132 0.465727L10.5338 0.868344ZM3.70391 5.19315L7.29824 1.59752L9.40371 3.70213L5.80723 7.29647C5.67617 7.42967 5.51504 7.5285 5.33672 7.58866L3.42891 8.22459C3.22481 8.28475 3.04004 8.23748 2.90039 8.08065C2.76289 7.96034 2.71563 7.75623 2.77578 7.57147L3.41172 5.66366C3.47188 5.48534 3.5707 5.3242 3.70391 5.19315ZM4.125 1.35604C4.50527 1.35604 4.8125 1.68325 4.8125 2.04354C4.8125 2.44315 4.50527 2.73104 4.125 2.73104H2.0625C1.68287 2.73104 1.375 3.0576 1.375 3.41854V8.93787C1.375 9.31815 1.68287 9.62537 2.0625 9.62537H7.5625C7.94277 9.62537 8.25 9.31815 8.25 8.93787V6.85604C8.25 6.4951 8.55723 6.16854 8.9375 6.16854C9.31777 6.16854 9.625 6.4951 9.625 6.85604V8.93787C9.625 10.0765 8.70117 11.0004 7.5625 11.0004H2.0625C0.923398 11.0004 0 10.0765 0 8.93787V3.41854C0 2.27987 0.923398 1.35604 2.0625 1.35604H4.125Z" fill="#03BCDB"/>
</svg>
