<svg width="29" height="28" viewBox="0 0 29 28" fill="none" xmlns="http://www.w3.org/2000/svg">
<path d="M14.5001 0C6.49294 0 0 6.41838 0 14.3361C0 20.6702 4.1547 26.044 9.91607 27.9396C10.6407 28.0724 10.9068 27.6286 10.9068 27.2499C10.9068 26.9081 10.8932 25.7788 10.8871 24.581C6.85318 25.4481 6.00198 22.8894 6.00198 22.8894C5.34234 21.2324 4.39191 20.7917 4.39191 20.7917C3.07638 19.902 4.49115 19.9203 4.49115 19.9203C5.94715 20.0213 6.71384 21.3976 6.71384 21.3976C8.00717 23.5892 10.106 22.9556 10.9335 22.5893C11.0636 21.6628 11.4394 21.0302 11.8541 20.6723C8.63339 20.3099 5.24775 19.0805 5.24775 13.5874C5.24775 12.0222 5.81416 10.7433 6.74171 9.7393C6.59116 9.37821 6.09487 7.92019 6.88218 5.94541C6.88218 5.94541 8.09984 5.56013 10.8708 7.41496C12.0274 7.09733 13.2678 6.93806 14.5001 6.93258C15.7324 6.93806 16.9738 7.09722 18.1326 7.41496C20.9002 5.56024 22.1161 5.94552 22.1161 5.94552C22.9054 7.92008 22.4088 9.37832 22.2583 9.7393C23.188 10.7433 23.7505 12.0222 23.7505 13.5874C23.7505 19.0936 20.3585 20.306 17.1296 20.661C17.6497 21.1058 18.1131 21.9783 18.1131 23.3158C18.1131 25.2339 18.0963 26.7777 18.0963 27.2499C18.0963 27.6315 18.3573 28.0785 19.0923 27.9376C24.8505 26.04 29 20.6681 29 14.3362C29 6.41838 22.508 0 14.5001 0ZM5.43082 20.4221C5.39887 20.4933 5.28548 20.5147 5.18228 20.4658C5.07704 20.4191 5.01802 20.322 5.052 20.2505C5.08327 20.1771 5.19689 20.1566 5.30179 20.2058C5.40714 20.2526 5.46718 20.3506 5.43082 20.4221ZM6.14404 21.0513C6.07493 21.1147 5.93968 21.0852 5.84792 20.9851C5.7531 20.8852 5.73532 20.7515 5.80544 20.6872C5.8768 20.6238 6.00787 20.6535 6.10291 20.7534C6.19784 20.8545 6.2162 20.9872 6.14404 21.0513ZM6.63341 21.8563C6.54448 21.9174 6.39926 21.8602 6.30943 21.7327C6.22061 21.6052 6.22061 21.4524 6.31135 21.3911C6.40141 21.3298 6.54448 21.3849 6.63545 21.5115C6.72404 21.6411 6.72404 21.794 6.6333 21.8565L6.63341 21.8563ZM7.46082 22.7887C7.38141 22.8754 7.21205 22.8521 7.08812 22.7339C6.96136 22.6183 6.92613 22.4543 7.00588 22.3676C7.08631 22.2807 7.25657 22.3051 7.38141 22.4225C7.50715 22.5379 7.54566 22.7031 7.46082 22.7887ZM8.53042 23.1035C8.4953 23.2158 8.33218 23.2669 8.16803 23.2192C8.004 23.17 7.89672 23.0385 7.9298 22.9251C7.9639 22.8119 8.1277 22.7588 8.29309 22.8099C8.4569 22.8588 8.56452 22.9893 8.53042 23.1036V23.1035ZM9.74751 23.2371C9.75159 23.3552 9.61237 23.4532 9.43995 23.4555C9.26663 23.4593 9.12628 23.3636 9.12435 23.2472C9.12435 23.1279 9.26052 23.0308 9.43395 23.0279C9.60636 23.0245 9.74751 23.1195 9.74751 23.2371ZM10.9432 23.1917C10.9638 23.3071 10.8441 23.4256 10.6728 23.4572C10.5046 23.4875 10.3487 23.4163 10.3273 23.3019C10.3064 23.1837 10.4284 23.0652 10.5964 23.0346C10.7679 23.0051 10.9213 23.0745 10.9432 23.1917Z" fill="gray"/>
</svg>
