<svg width="31" height="24" viewBox="0 0 31 24" fill="none" xmlns="http://www.w3.org/2000/svg">
<path d="M31 2.92276C29.8593 3.40242 28.6336 3.72659 27.3471 3.87243C28.6603 3.12601 29.6687 1.94404 30.1435 0.535737C28.8951 1.23827 27.5292 1.73324 26.1049 1.99928C24.9447 0.827182 23.2919 0.0946655 21.4625 0.0946655C17.9501 0.0946655 15.1023 2.79507 15.1023 6.12567C15.1023 6.59843 15.1586 7.05868 15.267 7.50021C9.98127 7.24862 5.29495 4.84758 2.15801 1.19867C1.61067 2.08942 1.29704 3.12556 1.29704 4.2307C1.29704 6.32318 2.41994 8.16911 4.12639 9.25072C3.11641 9.22073 2.12865 8.96204 1.24557 8.49627C1.24521 8.52153 1.24521 8.5468 1.24521 8.57218C1.24521 11.4943 3.43749 13.932 6.34689 14.4861C5.41033 14.7276 4.42795 14.7629 3.47479 14.5894C4.28405 16.9855 6.63291 18.7291 9.41589 18.7779C7.23923 20.3954 4.49682 21.3597 1.51718 21.3597C1.00375 21.3597 0.497574 21.3311 0 21.2754C2.81458 22.9866 6.15762 23.9851 9.74926 23.9851C21.4478 23.9851 27.8448 14.7949 27.8448 6.82511C27.8448 6.56353 27.8387 6.30343 27.8264 6.04483C29.0715 5.19126 30.1462 4.13403 31 2.92276Z" fill="#55ACEE"/>
</svg>
