<svg width="16" height="22" viewBox="0 0 16 22" fill="none" xmlns="http://www.w3.org/2000/svg">
<path d="M0.567548 0.771019C0.738834 0.683397 0.931151 0.643305 1.12385 0.655048C1.31656 0.66679 1.50237 0.729919 1.66135 0.837667L15.4265 10.2101C15.5672 10.3059 15.6821 10.4338 15.7615 10.5829C15.8409 10.732 15.8824 10.8978 15.8824 11.0661C15.8824 11.2344 15.8409 11.4001 15.7615 11.5492C15.6821 11.6983 15.5672 11.8262 15.4265 11.9221L1.66135 21.2945C1.50249 21.4026 1.31659 21.4659 1.12378 21.4775C0.930968 21.4892 0.738589 21.4487 0.567473 21.3606C0.396358 21.2724 0.253028 21.1399 0.153002 20.9773C0.0529756 20.8148 6.5208e-05 20.6285 1.43826e-08 20.4385V1.69368C-3.18371e-05 1.50359 0.0528402 1.31712 0.152886 1.15447C0.252931 0.991829 0.396333 0.859221 0.567548 0.771019Z" fill="white"/>
</svg>
