<!-- <svg width="20" height="6" viewBox="0 0 20 6" fill="none" xmlns="http://www.w3.org/2000/svg">
<rect width="20" height="6" fill="#E6E6E6"/>
<g clip-path="url(#clip0_0_1)">
<rect width="1440" height="900" transform="translate(-526 -239)" fill="#F4FDFF"/>
<rect x="-325" y="-175" width="1039" height="836" fill="white"/>
<path fill-rule="evenodd" clip-rule="evenodd" d="M0.3125 3C0.3125 1.44531 1.57031 0.1875 3.125 0.1875C4.67969 0.1875 5.9375 1.44531 5.9375 3C5.9375 4.55469 4.67969 5.8125 3.125 5.8125C1.57031 5.8125 0.3125 4.55469 0.3125 3ZM12.8125 3C12.8125 4.55469 11.5547 5.8125 10 5.8125C8.44531 5.8125 7.1875 4.55469 7.1875 3C7.1875 1.44531 8.44531 0.1875 10 0.1875C11.5547 0.1875 12.8125 1.44531 12.8125 3ZM16.875 0.1875C15.3203 0.1875 14.0625 1.44531 14.0625 3C14.0625 4.55469 15.3203 5.8125 16.875 5.8125C18.4297 5.8125 19.6875 4.55469 19.6875 3C19.6875 1.44531 18.4297 0.1875 16.875 0.1875Z" fill="black"/>
<mask id="mask0_0_1" style="mask-type:alpha" maskUnits="userSpaceOnUse" x="0" y="0" width="20" height="6">
<path fill-rule="evenodd" clip-rule="evenodd" d="M0.3125 3C0.3125 1.44531 1.57031 0.1875 3.125 0.1875C4.67969 0.1875 5.9375 1.44531 5.9375 3C5.9375 4.55469 4.67969 5.8125 3.125 5.8125C1.57031 5.8125 0.3125 4.55469 0.3125 3ZM12.8125 3C12.8125 4.55469 11.5547 5.8125 10 5.8125C8.44531 5.8125 7.1875 4.55469 7.1875 3C7.1875 1.44531 8.44531 0.1875 10 0.1875C11.5547 0.1875 12.8125 1.44531 12.8125 3ZM16.875 0.1875C15.3203 0.1875 14.0625 1.44531 14.0625 3C14.0625 4.55469 15.3203 5.8125 16.875 5.8125C18.4297 5.8125 19.6875 4.55469 19.6875 3C19.6875 1.44531 18.4297 0.1875 16.875 0.1875Z" fill="white"/>
</mask>
<g mask="url(#mask0_0_1)">
<rect x="-2" y="-9" width="24" height="24" fill="#989EA8"/>
</g>
</g>
<defs>
<clipPath id="clip0_0_1">
<rect width="1440" height="900" fill="white" transform="translate(-526 -239)"/>
</clipPath>
</defs>
</svg> -->
<svg width="20" height="6" viewBox="0 0 20 6" fill="none" xmlns="http://www.w3.org/2000/svg">
    <path fill-rule="evenodd" clip-rule="evenodd" d="M0.3125 3C0.3125 1.44531 1.57031 0.1875 3.125 0.1875C4.67969 0.1875 5.9375 1.44531 5.9375 3C5.9375 4.55469 4.67969 5.8125 3.125 5.8125C1.57031 5.8125 0.3125 4.55469 0.3125 3ZM12.8125 3C12.8125 4.55469 11.5547 5.8125 10 5.8125C8.44531 5.8125 7.1875 4.55469 7.1875 3C7.1875 1.44531 8.44531 0.1875 10 0.1875C11.5547 0.1875 12.8125 1.44531 12.8125 3ZM16.875 0.1875C15.3203 0.1875 14.0625 1.44531 14.0625 3C14.0625 4.55469 15.3203 5.8125 16.875 5.8125C18.4297 5.8125 19.6875 4.55469 19.6875 3C19.6875 1.44531 18.4297 0.1875 16.875 0.1875Z" fill="#989EA8" />
</svg>
    