<svg width="11" height="12" viewBox="0 0 11 12" fill="none" xmlns="http://www.w3.org/2000/svg">
<path d="M11 2.75V10C11 11.1 10.1 12 9 12H5.35C4.81 12 4.3 11.785 3.925 11.405L0 7.415C0 7.415 0.63 6.8 0.65 6.79C0.76 6.695 0.895 6.645 1.045 6.645C1.155 6.645 1.255 6.675 1.345 6.725C1.365 6.73 3.5 7.955 3.5 7.955V2C3.5 1.585 3.835 1.25 4.25 1.25C4.665 1.25 5 1.585 5 2V5.5H5.5V0.75C5.5 0.335 5.835 0 6.25 0C6.665 0 7 0.335 7 0.75V5.5H7.5V1.25C7.5 0.835 7.835 0.5 8.25 0.5C8.665 0.5 9 0.835 9 1.25V5.5H9.5V2.75C9.5 2.335 9.835 2 10.25 2C10.665 2 11 2.335 11 2.75Z" fill="#03BCDB"/>
</svg>
