<svg width="14" height="10" viewBox="0 0 14 10" fill="none" xmlns="http://www.w3.org/2000/svg">
<path d="M9.75 3.5C9.75 1.60938 7.73047 0.0625 5.28125 0.0625C2.81055 0.0625 0.8125 1.60938 0.8125 3.5C0.8125 4.25195 1.11328 4.91797 1.62891 5.47656C1.32812 6.14258 0.855469 6.6582 0.855469 6.6582C0.8125 6.70117 0.791016 6.78711 0.8125 6.85156C0.855469 6.91602 0.898438 6.9375 0.984375 6.9375C1.75781 6.9375 2.40234 6.67969 2.875 6.40039C3.5625 6.74414 4.40039 6.9375 5.28125 6.9375C7.73047 6.9375 9.75 5.41211 9.75 3.5ZM12.3711 8.22656C12.8652 7.66797 13.1875 7.00195 13.1875 6.25C13.1875 4.83203 12.0273 3.58594 10.3945 3.07031C10.416 3.2207 10.4375 3.37109 10.4375 3.5C10.4375 5.77734 8.11719 7.625 5.28125 7.625C5.04492 7.625 4.80859 7.625 4.59375 7.60352C5.25977 8.82812 6.84961 9.6875 8.71875 9.6875C9.59961 9.6875 10.416 9.49414 11.1035 9.15039C11.5762 9.42969 12.2207 9.6875 13.0156 9.6875C13.0801 9.6875 13.1445 9.66602 13.166 9.60156C13.1875 9.53711 13.1875 9.45117 13.123 9.4082C13.123 9.4082 12.6504 8.89258 12.3711 8.22656Z" fill="#03BCDB"/>
<a href="https://www.figma.com/file/ZQaFoFbpO4wpNfLo7JE3Cr/?node-id=3310%3A58">
<rect fill="black" fill-opacity="0" x="-0.1875" y="-0.325" width="12.375" height="12.65"/>
</a>
</svg>
