<svg width="12" height="13" viewBox="0 0 12 13" fill="none" xmlns="http://www.w3.org/2000/svg">
<path d="M11.4141 7.90625L10.4062 7.34375C10.5234 6.78125 10.5234 6.24219 10.4062 5.67969L11.4141 5.11719C11.5312 5.04688 11.5781 4.90625 11.5312 4.78906C11.2734 3.94531 10.8281 3.19531 10.2656 2.5625C10.1719 2.46875 10.0312 2.44531 9.91406 2.51562L8.90625 3.07812C8.48438 2.72656 8.01562 2.44531 7.5 2.25781V1.10938C7.5 0.992188 7.40625 0.875 7.26562 0.851562C6.39844 0.640625 5.53125 0.664062 4.71094 0.851562C4.57031 0.875 4.5 0.992188 4.5 1.10938V2.25781C3.96094 2.44531 3.49219 2.72656 3.07031 3.10156L2.0625 2.51562C1.94531 2.44531 1.80469 2.46875 1.71094 2.5625C1.14844 3.19531 0.703125 3.94531 0.445312 4.78906C0.398438 4.90625 0.445312 5.04688 0.5625 5.11719L1.57031 5.67969C1.47656 6.24219 1.47656 6.78125 1.57031 7.34375L0.5625 7.90625C0.445312 7.97656 0.398438 8.11719 0.445312 8.23438C0.703125 9.07812 1.14844 9.82812 1.71094 10.4609C1.80469 10.5547 1.94531 10.5781 2.0625 10.5078L3.07031 9.94531C3.49219 10.2969 3.96094 10.5781 4.5 10.7656V11.9141C4.5 12.0312 4.59375 12.1484 4.71094 12.1953C5.57812 12.3828 6.44531 12.3594 7.26562 12.1953C7.40625 12.1484 7.5 12.0312 7.5 11.9141V10.7656C8.01562 10.5781 8.48438 10.2969 8.90625 9.94531L9.91406 10.5078C10.0312 10.5781 10.1719 10.5547 10.2656 10.4609C10.8516 9.82812 11.2734 9.07812 11.5547 8.23438C11.5781 8.11719 11.5312 7.97656 11.4141 7.90625ZM6 8.375C4.94531 8.375 4.125 7.55469 4.125 6.5C4.125 5.46875 4.94531 4.625 6 4.625C7.03125 4.625 7.875 5.46875 7.875 6.5C7.875 7.55469 7.03125 8.375 6 8.375Z" fill="#03BCDB"/>
<a href="https://www.figma.com/file/ZQaFoFbpO4wpNfLo7JE3Cr/?node-id=3310%3A58">
<rect fill="black" fill-opacity="0" x="3" y="4.6" width="12" height="13.8"/>
</a>
</svg>
