<svg width="40" height="40" viewBox="0 0 40 40" fill="none" xmlns="http://www.w3.org/2000/svg">
<path d="M6.44596 33.5534C4.66353 31.7756 3.24999 29.6631 2.28657 27.3372C1.32315 25.0114 0.828837 22.5181 0.832047 20.0007C0.832047 9.4149 9.41296 0.833984 19.9987 0.833984C30.5845 0.833984 39.1654 9.4149 39.1654 20.0007C39.1654 30.5864 30.5845 39.1673 19.9987 39.1673H0.832047L6.44596 33.5534ZM12.332 21.9173C12.332 23.9506 13.1398 25.9007 14.5776 27.3385C16.0153 28.7763 17.9654 29.584 19.9987 29.584C22.032 29.584 23.9821 28.7763 25.4199 27.3385C26.8576 25.9007 27.6654 23.9506 27.6654 21.9173H12.332Z" fill="white"/>
</svg>
