<svg width="6" height="6" viewBox="0 0 6 6" fill="none" xmlns="http://www.w3.org/2000/svg">
<path d="M4.03125 3L5.59375 1.4375C5.79688 1.25 5.79688 0.9375 5.59375 0.75L5.25 0.40625C5.0625 0.203125 4.75 0.203125 4.5625 0.40625L3 1.96875L1.42188 0.40625C1.23438 0.203125 0.921875 0.203125 0.734375 0.40625L0.390625 0.75C0.1875 0.9375 0.1875 1.25 0.390625 1.4375L1.95312 3L0.390625 4.57812C0.1875 4.76562 0.1875 5.07812 0.390625 5.26562L0.734375 5.60938C0.921875 5.8125 1.23438 5.8125 1.42188 5.60938L3 4.04688L4.5625 5.60938C4.75 5.8125 5.0625 5.8125 5.25 5.60938L5.59375 5.26562C5.79688 5.07812 5.79688 4.76562 5.59375 4.57812L4.03125 3Z" fill="#C4C4C4"/>
</svg>
