<svg width="6" height="6" viewBox="0 0 6 6" fill="none" xmlns="http://www.w3.org/2000/svg">
<path d="M4.03149 3L5.59399 1.4375C5.79712 1.25 5.79712 0.9375 5.59399 0.75L5.25024 0.40625C5.06274 0.203125 4.75024 0.203125 4.56274 0.40625L3.00024 1.96875L1.42212 0.40625C1.23462 0.203125 0.922119 0.203125 0.734619 0.40625L0.390869 0.75C0.187744 0.9375 0.187744 1.25 0.390869 1.4375L1.95337 3L0.390869 4.57812C0.187744 4.76562 0.187744 5.07812 0.390869 5.26562L0.734619 5.60938C0.922119 5.8125 1.23462 5.8125 1.42212 5.60938L3.00024 4.04688L4.56274 5.60938C4.75024 5.8125 5.06274 5.8125 5.25024 5.60938L5.59399 5.26562C5.79712 5.07812 5.79712 4.76562 5.59399 4.57812L4.03149 3Z" fill="#C4C4C4"/>
</svg>
