<svg width="64" height="64" viewBox="0 0 64 64" fill="none" xmlns="http://www.w3.org/2000/svg">
<path fill-rule="evenodd" clip-rule="evenodd" d="M3.74219 32C3.74219 24.5054 6.71938 17.3179 12.0188 12.0184C17.3182 6.71901 24.5058 3.74182 32.0003 3.74182C39.4948 3.74182 46.6824 6.71901 51.9818 12.0184C57.2813 17.3179 60.2585 24.5054 60.2585 32C60.2585 39.4945 57.2813 46.682 51.9818 51.9815C46.6824 57.2809 39.4948 60.2581 32.0003 60.2581C24.5058 60.2581 17.3182 57.2809 12.0188 51.9815C6.71938 46.682 3.74219 39.4945 3.74219 32ZM32.0003 7.79516C25.5808 7.79516 19.4242 10.3453 14.8849 14.8846C10.3457 19.4239 7.79552 25.5804 7.79552 32C7.79552 38.4195 10.3457 44.5761 14.8849 49.1153C19.4242 53.6546 25.5808 56.2048 32.0003 56.2048C38.4198 56.2048 44.5764 53.6546 49.1157 49.1153C53.655 44.5761 56.2051 38.4195 56.2051 32C56.2051 25.5804 53.655 19.4239 49.1157 14.8846C44.5764 10.3453 38.4198 7.79516 32.0003 7.79516ZM42.0441 21.9605C42.444 22.3605 42.6687 22.9031 42.6687 23.4688C42.6687 24.0344 42.444 24.577 42.0441 24.977L35.0169 32L42.0441 39.0229C42.4446 39.4235 42.6697 39.9668 42.6697 40.5333C42.6697 41.0998 42.4446 41.6431 42.0441 42.0437C41.6435 42.4443 41.1002 42.6693 40.5337 42.6693C39.9671 42.6693 39.4238 42.4443 39.0233 42.0437L32.0003 35.0165L24.9774 42.0437C24.779 42.242 24.5436 42.3994 24.2844 42.5067C24.0253 42.6141 23.7475 42.6693 23.467 42.6693C23.1865 42.6693 22.9087 42.6141 22.6496 42.5067C22.3904 42.3994 22.1549 42.242 21.9566 42.0437C21.7582 41.8453 21.6009 41.6099 21.4936 41.3507C21.3862 41.0916 21.331 40.8138 21.331 40.5333C21.331 40.2528 21.3862 39.975 21.4936 39.7159C21.6009 39.4567 21.7582 39.2212 21.9566 39.0229L28.9838 32L21.9566 24.977C21.556 24.5764 21.331 24.0331 21.331 23.4666C21.331 22.9001 21.556 22.3568 21.9566 21.9562C22.3572 21.5556 22.9005 21.3306 23.467 21.3306C24.0335 21.3306 24.5768 21.5556 24.9774 21.9562L32.0003 28.9834L39.0233 21.9562C39.2214 21.7576 39.4568 21.5999 39.716 21.4924C39.9752 21.3848 40.253 21.3295 40.5337 21.3295C40.8143 21.3295 41.0921 21.3848 41.3513 21.4924C41.6105 21.5999 41.8459 21.7576 42.0441 21.9562V21.9605Z" fill="#03BCDB
"/>
</svg>
