<svg width="24" height="24" viewBox="0 0 24 24" fill="none" xmlns="http://www.w3.org/2000/svg">
<path d="M21.8055 10.0414H21V9.99988H12V13.9999H17.6515C16.827 16.3284 14.6115 17.9999 12 17.9999C8.6865 17.9999 6 15.3134 6 11.9999C6 8.68638 8.6865 5.99988 12 5.99988C13.5295 5.99988 14.921 6.57688 15.9805 7.51938L18.809 4.69088C17.023 3.02638 14.634 1.99988 12 1.99988C6.4775 1.99988 2 6.47738 2 11.9999C2 17.5224 6.4775 21.9999 12 21.9999C17.5225 21.9999 22 17.5224 22 11.9999C22 11.3294 21.931 10.6749 21.8055 10.0414Z" fill="#FFC107"/>
<path d="M3.15332 7.34538L6.43882 9.75488C7.32782 7.55388 9.48082 5.99988 12.0003 5.99988C13.5298 5.99988 14.9213 6.57688 15.9808 7.51938L18.8093 4.69088C17.0233 3.02638 14.6343 1.99988 12.0003 1.99988C8.15932 1.99988 4.82832 4.16838 3.15332 7.34538Z" fill="#FF3D00"/>
<path d="M11.9997 22.0001C14.5827 22.0001 16.9297 21.0116 18.7042 19.4041L15.6092 16.7851C14.5714 17.5743 13.3034 18.0011 11.9997 18.0001C9.39867 18.0001 7.19017 16.3416 6.35817 14.0271L3.09717 16.5396C4.75217 19.7781 8.11317 22.0001 11.9997 22.0001Z" fill="#4CAF50"/>
<path d="M21.8055 10.0416H21V10.0001H12V14.0001H17.6515C17.2571 15.1083 16.5467 16.0767 15.608 16.7856L15.6095 16.7846L18.7045 19.4036C18.4855 19.6026 22 17.0001 22 12.0001C22 11.3296 21.931 10.6751 21.8055 10.0416Z" fill="#1976D2"/>
</svg>
