<svg width="17" height="15" viewBox="0 0 17 15" fill="none" xmlns="http://www.w3.org/2000/svg">
<path d="M8.33445 14.1663C8.22478 14.1669 8.11606 14.1459 8.01453 14.1044C7.913 14.0629 7.82065 14.0018 7.74278 13.9246L1.26778 7.44127C0.455582 6.62059 0 5.51258 0 4.35794C0 3.2033 0.455582 2.09529 1.26778 1.27461C2.08633 0.458366 3.19514 0 4.35111 0C5.50709 0 6.6159 0.458366 7.43445 1.27461L8.33445 2.17461L9.23445 1.27461C10.053 0.458366 11.1618 0 12.3178 0C13.4738 0 14.5826 0.458366 15.4011 1.27461C16.2133 2.09529 16.6689 3.2033 16.6689 4.35794C16.6689 5.51258 16.2133 6.62059 15.4011 7.44127L8.92612 13.9246C8.84825 14.0018 8.7559 14.0629 8.65437 14.1044C8.55284 14.1459 8.44412 14.1669 8.33445 14.1663Z" fill="#FF5454"/>
</svg>
