<svg width="18" height="22" viewBox="0 0 18 22" fill="none" xmlns="http://www.w3.org/2000/svg">
<circle cx="9" cy="11" r="7.5" fill="white" stroke="#03BCDB"/>
<path d="M9.15625 7C7.90625 7 7.09375 7.51562 6.45312 8.4375C6.34375 8.59375 6.375 8.82812 6.54688 8.9375L7.21875 9.45312C7.375 9.57812 7.60938 9.54688 7.73438 9.39062C8.125 8.90625 8.42188 8.625 9.03125 8.625C9.51562 8.625 10.1094 8.92188 10.1094 9.39062C10.1094 9.75 9.8125 9.92188 9.34375 10.1875C8.78125 10.5 8.04688 10.8906 8.04688 11.8594V12C8.04688 12.2188 8.21875 12.375 8.42188 12.375H9.5625C9.76562 12.375 9.9375 12.2188 9.9375 12V11.9219C9.9375 11.25 11.8906 11.2188 11.8906 9.40625C11.8906 8.04688 10.4688 7 9.15625 7ZM9 12.8438C8.39062 12.8438 7.90625 13.3281 7.90625 13.9219C7.90625 14.5156 8.39062 15 9 15C9.59375 15 10.0781 14.5156 10.0781 13.9219C10.0781 13.3281 9.59375 12.8438 9 12.8438Z" fill="#03BCDB"/>
</svg>
