<svg width="20" height="20" viewBox="0 0 20 20" fill="none" xmlns="http://www.w3.org/2000/svg">
<rect width="20" height="20" fill="#E6E6E6"/>
<g clip-path="url(#clip0_0_1)">
<rect width="1440" height="900" transform="translate(-234 -152)" fill="#F4FDFF"/>
<rect x="-33" y="-88" width="1039" height="836" fill="white"/>
<rect x="-14" y="-14" width="320" height="48" rx="12" fill="#F5F5F5"/>
<path fill-rule="evenodd" clip-rule="evenodd" d="M15.833 13.3971L19.7275 17.2913C20.0908 17.6584 20.0908 18.2521 19.7236 18.6193L18.6182 19.7246C18.2549 20.0918 17.6611 20.0918 17.2939 19.7246L13.3994 15.8305C13.2236 15.6547 13.126 15.4165 13.126 15.1665V14.5298C11.7471 15.6079 10.0127 16.2484 8.12598 16.2484C3.6377 16.2484 0.000976562 12.612 0.000976562 8.12421C0.000976562 3.63636 3.6377 0 8.12598 0C12.6143 0 16.251 3.63636 16.251 8.12421C16.251 10.0107 15.6104 11.7449 14.5322 13.1237H15.1689C15.4189 13.1237 15.6572 13.2214 15.833 13.3971ZM3.12598 8.12421C3.12598 10.8896 5.36426 13.1237 8.12598 13.1237C10.8916 13.1237 13.126 10.8857 13.126 8.12421C13.126 5.35885 10.8877 3.12469 8.12598 3.12469C5.36035 3.12469 3.12598 5.36276 3.12598 8.12421Z" fill="black"/>
<mask id="mask0_0_1" style="mask-type:alpha" maskUnits="userSpaceOnUse" x="0" y="0" width="20" height="20">
<path fill-rule="evenodd" clip-rule="evenodd" d="M15.833 13.3971L19.7275 17.2913C20.0908 17.6584 20.0908 18.2521 19.7236 18.6193L18.6182 19.7246C18.2549 20.0918 17.6611 20.0918 17.2939 19.7246L13.3994 15.8305C13.2236 15.6547 13.126 15.4165 13.126 15.1665V14.5298C11.7471 15.6079 10.0127 16.2484 8.12598 16.2484C3.6377 16.2484 0.000976562 12.612 0.000976562 8.12421C0.000976562 3.63636 3.6377 0 8.12598 0C12.6143 0 16.251 3.63636 16.251 8.12421C16.251 10.0107 15.6104 11.7449 14.5322 13.1237H15.1689C15.4189 13.1237 15.6572 13.2214 15.833 13.3971ZM3.12598 8.12421C3.12598 10.8896 5.36426 13.1237 8.12598 13.1237C10.8916 13.1237 13.126 10.8857 13.126 8.12421C13.126 5.35885 10.8877 3.12469 8.12598 3.12469C5.36035 3.12469 3.12598 5.36276 3.12598 8.12421Z" fill="white"/>
</mask>
<g mask="url(#mask0_0_1)">
<rect x="-2" y="-2" width="24" height="24" fill="#989EA8"/>
</g>
</g>
<defs>
<clipPath id="clip0_0_1">
<rect width="1440" height="900" fill="white" transform="translate(-234 -152)"/>
</clipPath>
</defs>
</svg>
