<svg width="20" height="20" viewBox="0 0 20 20" fill="none" xmlns="http://www.w3.org/2000/svg">
<rect width="20" height="20" fill="#E6E6E6"/>
<g clip-path="url(#clip0_0_1)">
<rect width="375" height="667" transform="translate(-341 -624)" fill="white"/>
<path d="M18.5943 0.126175L0.488865 10.5694C-0.218166 10.9756 -0.128322 11.9597 0.574803 12.2565L4.72715 13.9984L15.9498 4.10975C16.1646 3.91838 16.4693 4.21129 16.2857 4.4339L6.87558 15.8964V19.0403C6.87558 19.962 7.98886 20.3252 8.53574 19.6574L11.0162 16.6385L15.8834 18.6771C16.4381 18.9115 17.0709 18.5639 17.1725 17.9663L19.985 1.09473C20.1178 0.305826 19.2701 -0.264372 18.5943 0.126175Z" fill="black"/>
<mask id="mask0_0_1" style="mask-type:alpha" maskUnits="userSpaceOnUse" x="0" y="0" width="20" height="20">
<path d="M18.5943 0.126175L0.488865 10.5694C-0.218166 10.9756 -0.128322 11.9597 0.574803 12.2565L4.72715 13.9984L15.9498 4.10975C16.1646 3.91838 16.4693 4.21129 16.2857 4.4339L6.87558 15.8964V19.0403C6.87558 19.962 7.98886 20.3252 8.53574 19.6574L11.0162 16.6385L15.8834 18.6771C16.4381 18.9115 17.0709 18.5639 17.1725 17.9663L19.985 1.09473C20.1178 0.305826 19.2701 -0.264372 18.5943 0.126175Z" fill="white"/>
</mask>
<g mask="url(#mask0_0_1)">
<rect x="-2" y="-2" width="24" height="24" fill="#03BCDB"/>
</g>
</g>
<defs>
<clipPath id="clip0_0_1">
<rect width="375" height="667" fill="white" transform="translate(-341 -624)"/>
</clipPath>
</defs>
</svg>
