<svg width="152" height="209" viewBox="0 0 152 209" fill="none" xmlns="http://www.w3.org/2000/svg">
<path d="M0.292893 200.293C-0.0976311 200.683 -0.0976311 201.317 0.292893 201.707L6.65685 208.071C7.04738 208.462 7.68054 208.462 8.07107 208.071C8.46159 207.681 8.46159 207.047 8.07107 206.657L2.41421 201L8.07107 195.343C8.46159 194.953 8.46159 194.319 8.07107 193.929C7.68054 193.538 7.04738 193.538 6.65685 193.929L0.292893 200.293ZM151 201V202C151.552 202 152 201.552 152 201H151ZM1 202H151V200H1V202ZM152 201V0H150V201H152Z" fill="black"/>
</svg>
