<svg width="16" height="18" viewBox="0 0 16 18" fill="none" xmlns="http://www.w3.org/2000/svg">
<path d="M2.34375 15.5938C4.1875 17.4688 7.1875 17.5 9.0625 15.5938L14.4375 10.0938C14.625 9.90625 14.625 9.59375 14.4062 9.40625L13.6875 8.6875C13.5 8.5 13.1875 8.5 13 8.6875L7.625 14.1875C6.5625 15.2812 4.84375 15.2812 3.78125 14.1875C2.71875 13.0938 2.71875 11.2812 3.8125 10.1875L10.375 3.46875C10.9688 2.875 11.9375 2.875 12.5312 3.46875C13.125 4.09375 13.125 5.125 12.5312 5.75L6.8125 11.5938C6.6875 11.7188 6.46875 11.7188 6.3125 11.5938C6.1875 11.4375 6.1875 11.1562 6.34375 11L10.8438 6.4375C11.0312 6.21875 11.0312 5.90625 10.8125 5.71875L10.125 5.03125C9.90625 4.8125 9.59375 4.84375 9.40625 5.03125L4.90625 9.625C4 10.5312 3.96875 12.0312 4.875 12.9688C5.78125 13.9375 7.3125 13.9375 8.25 13L13.9688 7.15625C15.3438 5.75 15.3125 3.46875 13.9688 2.0625C12.5625 0.65625 10.3125 0.65625 8.9375 2.0625L2.375 8.78125C0.53125 10.6562 0.5 13.6875 2.34375 15.5938Z" fill="#989EA8"/>
</svg>
