<svg width="16" height="13" viewBox="0 0 16 13" fill="none" xmlns="http://www.w3.org/2000/svg">
<path d="M11.5 5C11.5 2.59375 8.92969 0.625 5.8125 0.625C2.66797 0.625 0.125 2.59375 0.125 5C0.125 5.95703 0.507812 6.80469 1.16406 7.51562C0.78125 8.36328 0.179688 9.01953 0.179688 9.01953C0.125 9.07422 0.0976562 9.18359 0.125 9.26562C0.179688 9.34766 0.234375 9.375 0.34375 9.375C1.32812 9.375 2.14844 9.04688 2.75 8.69141C3.625 9.12891 4.69141 9.375 5.8125 9.375C8.92969 9.375 11.5 7.43359 11.5 5ZM14.8359 11.0156C15.4648 10.3047 15.875 9.45703 15.875 8.5C15.875 6.69531 14.3984 5.10938 12.3203 4.45312C12.3477 4.64453 12.375 4.83594 12.375 5C12.375 7.89844 9.42188 10.25 5.8125 10.25C5.51172 10.25 5.21094 10.25 4.9375 10.2227C5.78516 11.7812 7.80859 12.875 10.1875 12.875C11.3086 12.875 12.3477 12.6289 13.2227 12.1914C13.8242 12.5469 14.6445 12.875 15.6562 12.875C15.7383 12.875 15.8203 12.8477 15.8477 12.7656C15.875 12.6836 15.875 12.5742 15.793 12.5195C15.793 12.5195 15.1914 11.8633 14.8359 11.0156Z" fill="#03BCDB"/>
<a href="https://www.figma.com/file/ZQaFoFbpO4wpNfLo7JE3Cr/?node-id=3310%3A58">
<rect fill="black" fill-opacity="0" x="1.125" y="2.95" width="15.75" height="16.1"/>
</a>
</svg>
