<svg width="18" height="18" viewBox="0 0 18 18" fill="none" xmlns="http://www.w3.org/2000/svg">
<path d="M8.99935 0.667969C4.39935 0.667969 0.666016 4.4013 0.666016 9.0013C0.666016 13.6013 4.39935 17.3346 8.99935 17.3346C13.5993 17.3346 17.3327 13.6013 17.3327 9.0013C17.3327 4.4013 13.5993 0.667969 8.99935 0.667969ZM2.33268 9.0013C2.33268 5.31797 5.31602 2.33464 8.99935 2.33464C10.541 2.33464 11.9577 2.85964 13.0827 3.74297L3.74102 13.0846C2.85768 11.9596 2.33268 10.543 2.33268 9.0013ZM8.99935 15.668C7.45768 15.668 6.04102 15.143 4.91602 14.2596L14.2577 4.91797C15.141 6.04297 15.666 7.45964 15.666 9.0013C15.666 12.6846 12.6827 15.668 8.99935 15.668Z" fill="#989EA8"/>
</svg>
