<svg width="29" height="29" viewBox="0 0 29 29" fill="none" xmlns="http://www.w3.org/2000/svg">
<path d="M27.7923 6.64583V24.1667C27.7923 26.825 25.6173 29 22.959 29H14.1381C12.8331 29 11.6006 28.4804 10.6944 27.5621L1.20898 17.9196C1.20898 17.9196 2.73148 16.4333 2.77982 16.4092C3.04565 16.1796 3.3719 16.0588 3.7344 16.0588C4.00023 16.0588 4.2419 16.1313 4.4594 16.2521C4.50773 16.2642 9.66732 19.2246 9.66732 19.2246V4.83333C9.66732 3.83042 10.4769 3.02083 11.4798 3.02083C12.4827 3.02083 13.2923 3.83042 13.2923 4.83333V13.2917H14.5006V1.8125C14.5006 0.809583 15.3102 0 16.3131 0C17.3161 0 18.1256 0.809583 18.1256 1.8125V13.2917H19.334V3.02083C19.334 2.01792 20.1436 1.20833 21.1465 1.20833C22.1494 1.20833 22.959 2.01792 22.959 3.02083V13.2917H24.1673V6.64583C24.1673 5.64292 24.9769 4.83333 25.9798 4.83333C26.9827 4.83333 27.7923 5.64292 27.7923 6.64583Z" fill="#03BCDB"/>
</svg>
