<svg width="29" height="32" viewBox="0 0 29 32" fill="none" xmlns="http://www.w3.org/2000/svg">
<path d="M25.2917 3.62435H23.75V0.541016H20.6667V3.62435H8.33333V0.541016H5.25V3.62435H3.70833C1.99708 3.62435 0.625 5.01185 0.625 6.70768V28.291C0.625 29.9869 1.99708 31.3744 3.70833 31.3744H25.2917C26.9875 31.3744 28.375 29.9869 28.375 28.291V6.70768C28.375 5.01185 26.9875 3.62435 25.2917 3.62435ZM14.5 8.24935C17.0592 8.24935 19.125 10.3152 19.125 12.8743C19.125 15.4335 17.0592 17.4993 14.5 17.4993C11.9408 17.4993 9.875 15.4335 9.875 12.8743C9.875 10.3152 11.9408 8.24935 14.5 8.24935ZM23.75 26.7494H5.25V25.2077C5.25 22.1244 11.4167 20.4285 14.5 20.4285C17.5833 20.4285 23.75 22.1244 23.75 25.2077V26.7494Z" fill="#03BCDB"/>
</svg>
