<svg width="313" height="189" viewBox="0 0 313 189" fill="none" xmlns="http://www.w3.org/2000/svg">
<g clip-path="url(#clip0_1662_4008)">
<path d="M180.662 151.842C179.932 151.842 179.217 152.059 178.61 152.465C178.002 152.871 177.529 153.449 177.249 154.125C176.969 154.801 176.896 155.545 177.039 156.263C177.181 156.98 177.533 157.639 178.05 158.157C178.567 158.674 179.225 159.026 179.941 159.169C180.658 159.312 181.401 159.239 182.076 158.959C182.751 158.679 183.328 158.204 183.734 157.596C184.14 156.988 184.357 156.273 184.357 155.541C184.357 154.56 183.967 153.619 183.275 152.925C182.582 152.231 181.642 151.842 180.662 151.842ZM180.662 157.817C180.213 157.817 179.773 157.684 179.399 157.434C179.025 157.184 178.734 156.828 178.562 156.412C178.39 155.996 178.345 155.538 178.432 155.097C178.52 154.655 178.737 154.249 179.055 153.931C179.373 153.613 179.778 153.396 180.219 153.308C180.66 153.22 181.117 153.265 181.532 153.438C181.948 153.61 182.303 153.902 182.553 154.276C182.802 154.65 182.936 155.091 182.936 155.541V155.541C182.936 156.145 182.696 156.724 182.27 157.151C181.843 157.578 181.265 157.817 180.662 157.817Z" fill="#E4E4E4"/>
<path d="M166.453 148.996H180.662V163.078C180.662 163.57 180.467 164.041 180.12 164.389C179.773 164.736 179.302 164.932 178.811 164.932H168.304C167.813 164.932 167.342 164.736 166.995 164.389C166.648 164.041 166.453 163.57 166.453 163.078V148.996Z" fill="#E4E4E4"/>
<path d="M213.862 165.254H0.288186C0.208981 165.245 0.135772 165.207 0.082591 165.148C0.0294098 165.089 0 165.012 0 164.932C0 164.852 0.0294098 164.775 0.082591 164.716C0.135772 164.656 0.208981 164.619 0.288186 164.61H213.862C213.942 164.619 214.015 164.656 214.068 164.716C214.121 164.775 214.151 164.852 214.151 164.932C214.151 165.012 214.121 165.089 214.068 165.148C214.015 165.207 213.942 165.245 213.862 165.254Z" fill="#CACACA"/>
<path d="M28.7483 159.172L27.4275 165.712L51.9904 173.927L53.9401 164.274L28.7483 159.172Z" fill="#FFB6B6"/>
<path d="M31.2178 157.936L28.6163 170.815L28.6161 170.816C28.1762 172.993 26.8909 174.905 25.0427 176.133C23.1946 177.361 20.9351 177.803 18.7612 177.363L18.4949 177.309L22.7545 156.222L31.2178 157.936Z" fill="#2F2E41"/>
<path d="M56.5833 69.088C65.7944 69.088 73.2615 61.611 73.2615 52.3875C73.2615 43.1641 65.7944 35.687 56.5833 35.687C47.3721 35.687 39.905 43.1641 39.905 52.3875C39.905 61.611 47.3721 69.088 56.5833 69.088Z" fill="#FEB8B8"/>
<path d="M72.1608 37.9796C69.6672 33.9251 65.764 30.9375 61.2026 29.5918L59.155 31.088V29.1453C58.0596 28.9774 56.9508 28.9127 55.8433 28.9521L54.0768 30.5526V29.0851C51.4613 29.4105 48.9415 30.2751 46.6764 31.6242C44.4112 32.9734 42.4498 34.7779 40.9158 36.9239C37.0796 42.4616 36.432 50.1659 40.2052 55.7481C41.2408 52.5606 42.498 49.5699 43.534 46.3828C44.3481 46.4939 45.1732 46.4979 45.9883 46.3947L47.2484 43.4504L47.6004 46.2701C51.5064 45.9295 57.2998 45.1813 61.0026 44.4958L60.6425 42.3325L62.7967 44.1301C63.9311 43.8686 64.6047 43.6313 64.5491 43.4501C67.303 47.8957 70.6733 50.7351 73.4269 55.1808C74.4729 48.9122 75.6767 43.6999 72.1608 37.9796Z" fill="#2F2E41"/>
<path d="M62.0096 161.672C85.7269 161.672 104.954 156.287 104.954 149.644C104.954 143.001 85.7269 137.616 62.0096 137.616C38.2923 137.616 19.0657 143.001 19.0657 149.644C19.0657 156.287 38.2923 161.672 62.0096 161.672Z" fill="#2F2E41"/>
<path d="M92.4533 95.3334C91.8798 91.8784 91.2882 88.3571 89.6846 85.2447C88.6307 83.2061 86.9577 81.2633 84.7024 80.8602C84.2582 80.8206 83.8216 80.7194 83.4052 80.5595C82.7444 80.2408 73.8642 75.1647 72.4528 74.2806C71.2409 73.5216 69.3279 72.1163 68.3633 72.1163C67.3929 72.095 63.6719 72.9621 49.1484 71.8253C46.7054 72.8073 44.3397 73.9719 42.0714 75.3095C42.0246 75.2786 26.9973 83.359 26.4327 83.3377C25.3636 83.2927 24.3698 83.9781 23.7569 84.8413C23.1441 85.7045 22.8566 86.7731 22.5557 87.8063C25.8379 95.1254 28.8409 102.454 32.1235 109.773C32.2772 110.049 32.3588 110.359 32.3609 110.675C32.2949 111.002 32.1552 111.311 31.9525 111.576C30.3428 114.165 30.394 117.422 30.5698 120.465C30.7458 123.508 30.9634 126.723 29.6052 129.45C29.2358 130.199 28.7554 130.885 28.404 131.634C27.5812 133.33 27.2838 138.755 27.7644 140.577L87.9768 142.304C86.6822 138.741 92.4533 95.3334 92.4533 95.3334Z" fill="#C8F7FF"/>
<path d="M17.3511 110.098C17.231 110.968 17.2189 111.85 17.3151 112.723L18.1781 125.133C18.2591 126.303 18.3389 127.47 18.4485 128.637C18.6556 130.901 18.9649 133.147 19.3488 135.39C19.3575 135.709 19.492 136.011 19.7228 136.23C19.9536 136.45 20.2619 136.568 20.58 136.56C24.3789 137.365 28.3038 137.333 32.1809 137.114C38.0971 136.783 53.2329 136.157 54.1577 134.955C55.0824 133.752 54.5435 131.806 53.3378 130.833C52.132 129.861 32.158 127.489 32.158 127.489C32.3532 125.941 32.9419 124.482 33.5004 123.012C34.5036 120.404 35.4406 117.71 35.4586 114.917C35.4766 112.123 34.4255 109.186 32.14 107.585C30.26 106.271 27.8395 106.028 25.5486 106.082C23.8818 106.13 21.0018 105.73 19.4794 106.383C18.2746 106.914 17.5762 108.916 17.3511 110.098Z" fill="#FBBEBE"/>
<path d="M92.56 138.151C93.56 137.769 94.6622 137.907 95.7342 138.052C99.1849 138.524 102.686 139.008 105.885 140.388C107.386 141.032 108.816 141.892 109.831 143.157C110.731 144.297 111.257 145.692 111.756 147.067L112.909 150.23C113.4 151.419 113.738 152.664 113.915 153.938C114.276 157.724 111.69 161.293 108.438 163.26C105.185 165.227 101.357 165.927 97.6264 166.661C93.8963 167.395 90.1518 168.206 86.4371 169.067C84.7044 169.517 82.9465 169.863 81.1726 170.104C77.1966 170.555 73.0404 169.89 69.2624 171.208C67.7608 171.734 66.2863 172.516 64.7288 172.88C63.6935 173.098 62.6467 173.257 61.5935 173.358L54.4433 174.175C52.9893 174.37 51.5255 174.483 50.0588 174.512C46.9358 174.512 43.8636 173.772 40.8309 173.031C40.5086 172.974 40.2019 172.85 39.9306 172.667C39.4502 172.288 39.345 171.618 39.2759 171.011C38.9696 168.322 38.7017 165.631 38.4721 162.937C38.4001 162.062 38.346 161.114 38.8235 160.378C39.4241 159.476 40.5955 159.193 41.6646 159.018C46.198 158.276 50.7904 157.957 55.3828 158.065C57.1274 156.318 60.0045 156.309 62.29 155.359C63.1307 154.972 63.9444 154.529 64.7256 154.032C68.8135 151.644 73.3819 150.199 78.0981 149.802C79.0218 149.773 79.9394 149.642 80.8341 149.411C82.6025 148.86 84.2156 147.363 86.0323 147.73C86.2574 147.107 86.4136 146.274 86.9326 145.847C87.1898 145.628 87.5091 145.481 87.7464 145.246C88.248 144.738 88.293 143.938 88.2177 143.228C88.1425 142.518 87.9743 141.791 88.1576 141.099C88.2338 140.837 88.3461 140.587 88.491 140.356C89.3888 138.8 90.7492 138.001 92.56 138.151Z" fill="#2F2E41"/>
<path d="M22.3819 88.0291C22.0894 88.3358 21.8626 88.6991 21.7154 89.0967C19.2879 94.5748 17.8541 100.442 17.4811 106.423C17.4877 106.715 17.4205 107.004 17.286 107.262C17.1532 107.435 17.0055 107.595 16.8445 107.741C16.7041 107.907 16.5979 108.1 16.5319 108.308C16.4659 108.515 16.4414 108.734 16.4598 108.951C16.4782 109.169 16.5392 109.38 16.6392 109.574C16.7392 109.767 16.8763 109.939 17.0428 110.08C17.07 110.103 17.0981 110.125 17.1268 110.146C17.6223 109.213 18.8084 108.907 19.8627 108.826C24.9108 108.426 29.8418 110.778 34.905 110.601C34.5478 109.365 34.034 108.177 33.7427 106.926C32.4543 101.372 35.6677 95.3248 33.6976 89.975C33.3041 88.9045 32.6466 87.852 31.6106 87.3829C31.1816 87.2096 30.7327 87.0907 30.2743 87.0288C28.9949 86.7973 26.448 85.8079 25.2111 86.2048C24.7545 86.3523 24.5745 86.7821 24.196 87.042C23.6211 87.4096 22.8584 87.5449 22.3819 88.0291Z" fill="#C8F7FF"/>
<path d="M92.4893 106.383C90.9668 105.73 88.0869 106.13 86.42 106.082C84.1291 106.028 81.7086 106.271 79.8286 107.585C77.5432 109.186 76.4921 112.123 76.5101 114.917C76.5281 117.71 77.465 120.404 78.4682 123.012C79.0267 124.482 79.6154 125.941 79.8106 127.489C79.8106 127.489 59.8367 129.861 58.6309 130.833C57.4252 131.806 56.8863 133.752 57.811 134.954C58.7357 136.157 87.5898 137.365 91.3887 136.56C91.7068 136.568 92.015 136.45 92.2459 136.23C92.4767 136.011 92.6112 135.709 92.6199 135.39C93.0038 133.147 93.3131 130.901 93.5201 128.637C93.6298 127.47 93.7095 126.303 93.7905 125.133L94.6535 112.723C94.7498 111.85 94.7377 110.968 94.6175 110.098C94.3925 108.916 93.6941 106.914 92.4893 106.383Z" fill="#FBBEBE"/>
<path d="M87.7724 87.042C87.394 86.7821 87.2139 86.3523 86.7574 86.2048C85.5204 85.8079 82.9736 86.7973 81.6942 87.0288C81.2358 87.0907 80.7869 87.2096 80.3579 87.3829C79.3219 87.852 78.6644 88.9045 78.2708 89.975C76.3008 95.3248 79.5142 101.372 78.2258 106.926C77.9345 108.177 77.4207 109.365 77.0635 110.601C82.1266 110.778 87.0577 108.426 92.1057 108.826C93.16 108.907 94.3462 109.213 94.8417 110.146C94.8704 110.125 94.8984 110.103 94.9257 110.08C95.0921 109.939 95.2292 109.767 95.3293 109.574C95.4293 109.38 95.4902 109.169 95.5086 108.951C95.5271 108.734 95.5026 108.515 95.4366 108.308C95.3706 108.1 95.2643 107.907 95.124 107.741C94.963 107.595 94.8152 107.435 94.6825 107.262C94.5479 107.004 94.4808 106.715 94.4873 106.423C94.1143 100.442 92.6805 94.5748 90.2531 89.0967C90.1058 88.6991 89.879 88.3358 89.5865 88.0291C89.11 87.5449 88.3473 87.4096 87.7724 87.042Z" fill="#C8F7FF"/>
<path d="M96.2165 168.508L95.3387 175.122L69.4431 174.879L70.7389 165.117L96.2165 168.508Z" fill="#FFB6B6"/>
<path d="M102.843 167.673L100.013 189L99.7431 188.964C97.5446 188.671 95.5521 187.516 94.2041 185.753C92.856 183.989 92.2628 181.762 92.5548 179.56L92.5548 179.56L94.2838 166.534L102.843 167.673Z" fill="#2F2E41"/>
<path d="M35.2946 141.498C35.2946 141.799 34.8232 141.498 34.7801 141.176C34.4499 138.744 32.5217 136.738 30.2754 135.763C28.0292 134.789 25.4705 134.738 23.0381 134.969C19.3594 135.318 15.2299 136.729 13.8847 140.172C13.5663 140.977 10.5844 148.144 10.8754 149.755C11.6593 154.055 14.5962 157.733 18.1549 160.28C21.7137 162.827 25.8717 164.349 30.0195 165.721C40.9858 169.343 52.237 172.034 63.6541 173.765C65.5039 174.045 67.372 174.304 69.1436 174.899C70.7291 175.431 72.2127 176.228 73.7625 176.854C77.3662 178.302 81.2433 178.82 85.084 179.329C85.7386 179.413 86.4894 179.473 86.973 179.028C87.5977 178.448 87.391 177.437 87.2132 176.604C86.5613 173.437 87.1083 170.14 88.7478 167.354C89.3909 166.272 90.2269 165.162 90.1054 163.909C89.9613 162.448 88.5077 161.414 87.0601 161.179C85.6126 160.944 84.1412 161.29 82.6873 161.48C82.189 161.594 81.6669 161.542 81.2008 161.332C80.9848 161.186 80.7889 161.012 80.6182 160.815C79.6169 159.848 78.3354 159.223 76.9575 159.03C75.5796 158.837 74.1761 159.086 72.9484 159.742C72.4107 160.042 71.5979 159.372 71.0384 159.119L64.7229 156.256C57.4675 152.97 50.1761 149.668 42.5001 147.587C41.8877 147.466 41.3056 147.224 40.7883 146.874C40.407 146.573 40.1337 146.166 39.7822 145.831C39.0163 145.106 37.9495 144.817 37.0315 144.303C36.1135 143.789 35.0843 142.53 35.2946 141.498Z" fill="#2F2E41"/>
<path d="M51.6436 137.153C54.1296 137.153 56.145 135.135 56.145 132.645C56.145 130.156 54.1296 128.138 51.6436 128.138C49.1575 128.138 47.1421 130.156 47.1421 132.645C47.1421 135.135 49.1575 137.153 51.6436 137.153Z" fill="#FBBEBE"/>
<path d="M61.6111 137.153C64.0972 137.153 66.1125 135.135 66.1125 132.645C66.1125 130.156 64.0972 128.138 61.6111 128.138C59.125 128.138 57.1096 130.156 57.1096 132.645C57.1096 135.135 59.125 137.153 61.6111 137.153Z" fill="#FBBEBE"/>
<path d="M89.3976 142.802H27.5543C26.8322 142.801 26.14 142.514 25.6294 142.003C25.1189 141.491 24.8317 140.798 24.8308 140.075V102.507C24.8317 101.784 25.1189 101.09 25.6294 100.579C26.14 100.068 26.8322 99.7805 27.5543 99.7797H89.3976C90.1196 99.7805 90.8118 100.068 91.3224 100.579C91.8329 101.09 92.1202 101.784 92.121 102.507V140.075C92.1202 140.798 91.8329 141.491 91.3224 142.003C90.8118 142.514 90.1196 142.801 89.3976 142.802Z" fill="#3F3D56"/>
<path d="M58.3258 123.095C59.3209 123.095 60.1277 122.287 60.1277 121.291C60.1277 120.295 59.3209 119.487 58.3258 119.487C57.3306 119.487 56.5239 120.295 56.5239 121.291C56.5239 122.287 57.3306 123.095 58.3258 123.095Z" fill="white"/>
<path d="M279.1 67.7575H198.751C198.325 67.7571 197.916 67.5873 197.615 67.2855C197.314 66.9837 197.144 66.5745 197.144 66.1477V50.9833H197.787V66.1477C197.787 66.4038 197.889 66.6493 198.069 66.8304C198.25 67.0115 198.495 67.1133 198.751 67.1136H279.1C279.356 67.1133 279.601 67.0115 279.782 66.8304C279.963 66.6493 280.064 66.4038 280.065 66.1477V50.8773H280.708V66.1477C280.707 66.5745 280.538 66.9837 280.236 67.2855C279.935 67.5873 279.526 67.7571 279.1 67.7575Z" fill="#3F3D56"/>
<path d="M308.227 50.6614H119.416V51.3053H308.227V50.6614Z" fill="#3F3D56"/>
<path d="M119.43 56.4716C122.485 56.4716 124.961 53.9919 124.961 50.9332C124.961 47.8744 122.485 45.3948 119.43 45.3948C116.375 45.3948 113.899 47.8744 113.899 50.9332C113.899 53.9919 116.375 56.4716 119.43 56.4716Z" fill="#03BCDB"/>
<path d="M175.635 56.4716C178.69 56.4716 181.167 53.9919 181.167 50.9332C181.167 47.8744 178.69 45.3948 175.635 45.3948C172.581 45.3948 170.104 47.8744 170.104 50.9332C170.104 53.9919 172.581 56.4716 175.635 56.4716Z" fill="#03BCDB"/>
<path d="M213.78 72.7503C216.834 72.7503 219.311 70.2706 219.311 67.2119C219.311 64.1531 216.834 61.6735 213.78 61.6735C210.725 61.6735 208.249 64.1531 208.249 67.2119C208.249 70.2706 210.725 72.7503 213.78 72.7503Z" fill="#3F3D56"/>
<path d="M242.778 72.7503C245.833 72.7503 248.309 70.2706 248.309 67.2119C248.309 64.1531 245.833 61.6735 242.778 61.6735C239.723 61.6735 237.247 64.1531 237.247 67.2119C237.247 70.2706 239.723 72.7503 242.778 72.7503Z" fill="#CCCCCC"/>
<path d="M228.726 56.4716C231.78 56.4716 234.257 53.9919 234.257 50.9332C234.257 47.8744 231.78 45.3948 228.726 45.3948C225.671 45.3948 223.195 47.8744 223.195 50.9332C223.195 53.9919 225.671 56.4716 228.726 56.4716Z" fill="#03BCDB"/>
<path d="M307.469 56.4716C310.524 56.4716 313 53.9919 313 50.9332C313 47.8744 310.524 45.3948 307.469 45.3948C304.414 45.3948 301.938 47.8744 301.938 50.9332C301.938 53.9919 304.414 56.4716 307.469 56.4716Z" fill="#03BCDB"/>
<path d="M280.386 56.4716C283.441 56.4716 285.917 53.9919 285.917 50.9332C285.917 47.8744 283.441 45.3948 280.386 45.3948C277.332 45.3948 274.855 47.8744 274.855 50.9332C274.855 53.9919 277.332 56.4716 280.386 56.4716Z" fill="#03BCDB"/>
<path d="M218.786 0H208.527V7.0799H218.786V0Z" fill="#3F3D56"/>
<path d="M124.6 0H114.341V7.0799H124.6V0Z" fill="#03BCDB"/>
<path d="M159.349 0H149.09V7.0799H159.349V0Z" fill="#CCCCCC"/>
<path d="M136.582 51.3053C136.496 51.3053 136.414 51.2714 136.354 51.211C136.294 51.1506 136.26 51.0687 136.26 50.9833V35.0905C136.26 34.6637 136.43 34.2546 136.731 33.9528C137.033 33.651 137.441 33.4812 137.868 33.4807H153.518C153.603 33.4807 153.685 33.5146 153.746 33.575C153.806 33.6354 153.84 33.7173 153.84 33.8027C153.84 33.8881 153.806 33.97 153.746 34.0303C153.685 34.0907 153.603 34.1246 153.518 34.1246H137.868C137.612 34.1249 137.367 34.2268 137.186 34.4078C137.005 34.5889 136.903 34.8344 136.903 35.0905V50.9833C136.903 51.0687 136.869 51.1506 136.809 51.211C136.749 51.2714 136.667 51.3053 136.582 51.3053Z" fill="#3F3D56"/>
<path d="M154.254 39.221C157.308 39.221 159.785 36.7413 159.785 33.6826C159.785 30.6238 157.308 28.1442 154.254 28.1442C151.199 28.1442 148.723 30.6238 148.723 33.6826C148.723 36.7413 151.199 39.221 154.254 39.221Z" fill="#E6E6E6"/>
<path d="M260.372 50.9833H259.729V35.0905C259.729 34.6637 259.899 34.2546 260.2 33.9528C260.502 33.651 260.91 33.4812 261.336 33.4807H276.987V34.1246H261.336C261.081 34.1249 260.835 34.2268 260.655 34.4078C260.474 34.5889 260.372 34.8344 260.372 35.0905V50.9833Z" fill="#3F3D56"/>
<path d="M277.722 39.221C280.777 39.221 283.253 36.7413 283.253 33.6826C283.253 30.6238 280.777 28.1442 277.722 28.1442C274.667 28.1442 272.191 30.6238 272.191 33.6826C272.191 36.7413 274.667 39.221 277.722 39.221Z" fill="#E6E6E6"/>
</g>
<defs>
<clipPath id="clip0_1662_4008">
<rect width="313" height="189" fill="white"/>
</clipPath>
</defs>
</svg>
