<svg width="15" height="15" viewBox="0 0 15 15" fill="none" xmlns="http://www.w3.org/2000/svg">
    <path d="M13.167 0.416992H1.83366C1.05449 0.416992 0.416992 1.05449 0.416992 1.83366V14.5837L3.25033 11.7503H13.167C13.9462 11.7503 14.5837 11.1128 14.5837 10.3337V1.83366C14.5837 1.05449 13.9462 0.416992 13.167 0.416992ZM3.25033 8.91699V7.16741L8.12366 2.29408C8.26533 2.15241 8.48491 2.15241 8.62658 2.29408L9.88033 3.54783C10.022 3.68949 10.022 3.90908 9.88033 4.05074L4.99991 8.91699H3.25033ZM11.042 8.91699H6.43783L7.85449 7.50033H11.042C11.4316 7.50033 11.7503 7.81908 11.7503 8.20866C11.7503 8.59824 11.4316 8.91699 11.042 8.91699Z" fill="black"/>
    </svg>
    