<svg width="24" height="24" viewBox="0 0 24 24" fill="none" xmlns="http://www.w3.org/2000/svg">
<path fill-rule="evenodd" clip-rule="evenodd" d="M2.3125 12C2.3125 10.4453 3.57031 9.1875 5.125 9.1875C6.67969 9.1875 7.9375 10.4453 7.9375 12C7.9375 13.5547 6.67969 14.8125 5.125 14.8125C3.57031 14.8125 2.3125 13.5547 2.3125 12ZM14.8125 12C14.8125 13.5547 13.5547 14.8125 12 14.8125C10.4453 14.8125 9.1875 13.5547 9.1875 12C9.1875 10.4453 10.4453 9.1875 12 9.1875C13.5547 9.1875 14.8125 10.4453 14.8125 12ZM18.875 9.1875C17.3203 9.1875 16.0625 10.4453 16.0625 12C16.0625 13.5547 17.3203 14.8125 18.875 14.8125C20.4297 14.8125 21.6875 13.5547 21.6875 12C21.6875 10.4453 20.4297 9.1875 18.875 9.1875Z" fill="black"/>
<mask id="mask0_1344_21819" style="mask-type:alpha" maskUnits="userSpaceOnUse" x="2" y="9" width="20" height="6">
<path fill-rule="evenodd" clip-rule="evenodd" d="M2.3125 12C2.3125 10.4453 3.57031 9.1875 5.125 9.1875C6.67969 9.1875 7.9375 10.4453 7.9375 12C7.9375 13.5547 6.67969 14.8125 5.125 14.8125C3.57031 14.8125 2.3125 13.5547 2.3125 12ZM14.8125 12C14.8125 13.5547 13.5547 14.8125 12 14.8125C10.4453 14.8125 9.1875 13.5547 9.1875 12C9.1875 10.4453 10.4453 9.1875 12 9.1875C13.5547 9.1875 14.8125 10.4453 14.8125 12ZM18.875 9.1875C17.3203 9.1875 16.0625 10.4453 16.0625 12C16.0625 13.5547 17.3203 14.8125 18.875 14.8125C20.4297 14.8125 21.6875 13.5547 21.6875 12C21.6875 10.4453 20.4297 9.1875 18.875 9.1875Z" fill="white"/>
</mask>
<g mask="url(#mask0_1344_21819)">
<rect width="24" height="24" fill="#989EA8"/>
</g>
</svg>
