<svg width="27" height="22" viewBox="0 0 27 22" fill="none" xmlns="http://www.w3.org/2000/svg">
<g clip-path="url(#clip0_1662_4049)">
<path d="M27 2.67897C26.0065 3.11865 24.9389 3.41581 23.8184 3.5495C24.9622 2.86528 25.8405 1.78181 26.254 0.490864C25.1667 1.13485 23.9771 1.58858 22.7365 1.83244C21.726 0.758022 20.2865 0.0865479 18.6932 0.0865479C15.6339 0.0865479 13.1536 2.56192 13.1536 5.61497C13.1536 6.04834 13.2027 6.47023 13.2971 6.87497C8.69337 6.64434 4.61173 4.44339 1.87956 1.09855C1.40284 1.91507 1.12968 2.86486 1.12968 3.87792C1.12968 5.79602 2.10769 7.48813 3.59395 8.4796C2.71429 8.4521 1.85398 8.21498 1.08485 7.78802C1.08454 7.81118 1.08454 7.83434 1.08454 7.8576C1.08454 10.5362 2.99394 12.7708 5.52793 13.2787C4.71222 13.5001 3.8566 13.5325 3.02643 13.3734C3.73127 15.5698 5.77705 17.1681 8.20093 17.2129C6.30513 18.6956 3.91658 19.5795 1.32142 19.5795C0.874231 19.5795 0.433371 19.5533 0 19.5022C2.45141 21.0709 5.36309 21.9861 8.49129 21.9861C18.6803 21.9861 24.2519 13.5618 24.2519 6.25613C24.2519 6.01634 24.2466 5.77792 24.2359 5.54086C25.3203 4.75843 26.2564 3.7893 27 2.67897" fill="white"/>
</g>
<defs>
<clipPath id="clip0_1662_4049">
<rect width="27" height="22" fill="white"/>
</clipPath>
</defs>
</svg>
