<svg width="24" height="17" viewBox="0 0 24 17" fill="none" xmlns="http://www.w3.org/2000/svg">
<path d="M17.4 8.5C19.056 8.5 20.388 7.14 20.388 5.46429C20.388 3.78857 19.056 2.42857 17.4 2.42857C15.744 2.42857 14.4 3.78857 14.4 5.46429C14.4 7.14 15.744 8.5 17.4 8.5ZM8.4 7.28571C10.392 7.28571 11.988 5.65857 11.988 3.64286C11.988 1.62714 10.392 0 8.4 0C6.408 0 4.8 1.62714 4.8 3.64286C4.8 5.65857 6.408 7.28571 8.4 7.28571ZM17.4 10.9286C15.204 10.9286 10.8 12.0457 10.8 14.2679V17H24V14.2679C24 12.0457 19.596 10.9286 17.4 10.9286ZM8.4 9.71429C5.604 9.71429 0 11.135 0 13.9643V17H8.4V14.2679C8.4 13.2357 8.796 11.4264 11.244 10.0543C10.2 9.83571 9.192 9.71429 8.4 9.71429Z" fill="#03BCDB"/>
</svg>
