<svg xmlns="http://www.w3.org/2000/svg" xmlns:xlink="http://www.w3.org/1999/xlink" width="680" height="320" fill="none" xmlns:v="https://vecta.io/nano"><style><![CDATA[.B{fill:#3f3d56}.C{fill:#2f2e41}.D{fill:#e6e6e6}]]></style><path d="M0 0h680v320H0z" class="D"/><g clip-path="url(#A)"><path fill="#fff" d="M0 0h680v320H0z"/><path fill="#7879f1" d="M0 0h680v320H0z"/><g clip-path="url(#B)"><path d="M528.426 88.882c6.752 0 12.226-5.476 12.226-12.232s-5.474-12.232-12.226-12.232-12.225 5.476-12.225 12.232 5.474 12.232 12.225 12.232z" fill="#fd6584"/><g class="D"><path d="M555.788 70.856a6.07 6.07 0 0 0-1.921-2.893 6.06 6.06 0 0 0-3.193-1.363h-.064-.101c-4.093-.531-8.645.76-11.708 3.573a11.06 11.06 0 0 0-2.669 3.665 5.91 5.91 0 0 0-2.18-1.823c-.864-.421-1.818-.626-2.779-.596a6.04 6.04 0 0 0-3.388 1.325 6.05 6.05 0 0 0-2.015 3.031c-.034.141-.024.289.029.423a.69.69 0 0 0 .269.328c.368.316.806.539 1.277.65a85.69 85.69 0 0 0 3.054.591c1.997.36 4.002.649 6.017.866 1.334.144 2.669.257 4.006.339a88.26 88.26 0 0 0 8.315.128c1.374-.046 2.692-.092 3.947-.696.916-.447 1.698-1.128 2.266-1.974a6.63 6.63 0 0 0 1.039-2.694c.145-.963.077-1.947-.201-2.881zm-25.151 17.82c-.024-.513-.11-1.02-.256-1.512a6.08 6.08 0 0 0-1.925-2.892 6.07 6.07 0 0 0-3.194-1.364h-.078l-.106-.023a15.23 15.23 0 0 0-6.726.692c-3.324 1.113-6.24 3.358-7.646 6.565a5.92 5.92 0 0 0-2.185-1.825c-.865-.421-1.821-.626-2.783-.594-1.239.083-2.422.546-3.389 1.325a6.05 6.05 0 0 0-2.014 3.031.71.71 0 0 0 .316.774c.368.316.806.539 1.278.651a86.83 86.83 0 0 0 3.058.591 92.31 92.31 0 0 0 6.017.847 89.33 89.33 0 0 0 12.325.458c1.374-.046 2.693-.092 3.947-.696a5.77 5.77 0 0 0 2.262-1.975c.805-1.192 1.192-2.618 1.099-4.054z"/></g><g fill="#f2f2f2"><path d="M689.862 237.101a78.73 78.73 0 0 1-3.406 24.633l-.289.87h-50.164a45 45 0 0 1 3.393-10.23c4.171-8.864 10.989-16.451 17.719-23.982 9.268-10.386 18.315-20.68 19.748-34.185a77.63 77.63 0 0 1 8.7 18.022c-2.592.961-4.971 2.421-7.001 4.298-.563.526-1.158 1.291-.87 2.024.27.614 1.021.82 1.685.958l4.808.916 3.814.733c1.131 5.242 1.755 10.581 1.863 15.943z"/><path d="M732 231.576c-8.04 4.893-13.154 12.465-17.33 20.936a21.4 21.4 0 0 0-9.725 5.117c-.582.527-1.177 1.292-.87 2.025.256.614 1.021.82 1.685.958l4.789.916-.458 1.09h-53.163c2.412-3.256 5.084-6.311 7.99-9.135.631-.632 1.277-1.227 1.941-1.832a79.6 79.6 0 0 1 23.003-14.527c13.302-5.571 27.849-7.486 42.138-5.548z"/><path d="M665.787 262.604h-47.335c-.257-3.793-.234-7.599.069-11.389 1.891-23.405 14.619-45.702 33.823-59.207-2.455 8.745-1.195 17.44 1.373 26.172-.357.119-.719.22-1.039.357-2.594.959-4.974 2.417-7.006 4.293-.563.531-1.158 1.297-.87 2.03.257.613 1.026.82 1.69.957l4.785.916 3.837.752a59.1 59.1 0 0 1 1.79.339c.082.206.133.394.22.581 2.999 8.246 6.268 16.603 7.784 25.078.379 2.121.641 4.263.783 6.413a38.28 38.28 0 0 1 .096 2.708zm-257.973-25.503a78.73 78.73 0 0 1-3.407 24.633l-.289.87h-50.164a45.05 45.05 0 0 1 3.393-10.23c4.171-8.864 10.989-16.451 17.72-23.982 9.267-10.386 18.314-20.68 19.748-34.185 3.665 5.607 6.589 11.664 8.699 18.022-2.592.961-4.971 2.421-7.001 4.298-.563.526-1.158 1.291-.87 2.024.27.614 1.021.82 1.685.958l4.808.916 3.814.733c1.131 5.242 1.756 10.581 1.864 15.943z"/><path d="M449.951 231.576c-8.04 4.893-13.154 12.465-17.33 20.936a21.4 21.4 0 0 0-9.725 5.117c-.582.527-1.177 1.292-.87 2.025.256.614 1.021.82 1.685.958l4.789.916-.458 1.09h-53.163c2.412-3.256 5.084-6.311 7.99-9.135.632-.632 1.277-1.227 1.941-1.832 6.778-6.127 14.56-11.041 23.004-14.527a80.92 80.92 0 0 1 42.137-5.548z"/><path d="M383.739 262.604h-47.335a77.59 77.59 0 0 1 .069-11.389c1.891-23.405 14.62-45.702 33.823-59.207-2.454 8.745-1.195 17.44 1.373 26.172-.357.119-.719.22-1.039.357a21.12 21.12 0 0 0-7.005 4.293c-.564.531-1.159 1.297-.87 2.03.256.613 1.025.82 1.689.957l4.785.916 3.837.752c.595.1 1.19.219 1.79.339.083.206.133.394.22.581 2.999 8.246 6.268 16.603 7.784 25.078.379 2.121.641 4.263.783 6.413a38.28 38.28 0 0 1 .096 2.708z"/></g><g class="D"><path d="M559.955 242.722l42.294 3.757.457.041V65.957l-.457-.316c-8.813-6.169-18.346-11.237-28.388-15.09l-2.162 29.824-.196 2.749-2.12 29.558-.66 9.098-8.667 119.89-.101 1.053zM455.373 62.595l-.916.586V246.52l.916-.082 41.835-3.716-.077-1.053-8.668-119.89-.659-9.098-2.138-29.576-.197-2.749-2.267-31.276a131.75 131.75 0 0 0-27.829 13.514z"/><path d="M454.456 63.18l-1.831 1.205v184.622c0 4.613 2.747 8.48 6.41 9.464.597.161 1.213.243 1.832.243h135.896a6.99 6.99 0 0 0 1.831-.243 7.78 7.78 0 0 0 3.563-2.134 10.51 10.51 0 0 0 2.829-7.33V67.592l-2.289-1.64-.458-.316v183.385c.001.594-.07 1.186-.211 1.763-.645 2.726-2.774 4.723-5.283 4.723H460.867c-3.031 0-5.495-2.909-5.495-6.486V62.594c-.311.188-.613.385-.916.586z"/><path d="M603.608 80.375H453.999v2.73h149.609v-2.73z"/><path d="M557.789 45.552l-2.747-.632v74.128h2.747V45.552zM502.533 44l-2.747.531v74.518h2.747V44zm-77.865 209.951a12.21 12.21 0 0 0 .884 4.581c.225.563.493 1.108.801 1.631a12.16 12.16 0 0 0 1.374 1.915c1.15 1.311 2.567 2.362 4.155 3.082a12.25 12.25 0 0 0 5.057 1.091h179.179c3.257 0 6.38-1.294 8.683-3.598a12.29 12.29 0 0 0 0-17.377 12.27 12.27 0 0 0-8.683-3.598h-179.17c-3.253.003-6.373 1.297-8.674 3.598a12.3 12.3 0 0 0-3.606 8.675z"/><path d="M602.702 112.682H453.999v9.098h148.703v-9.098z"/><path d="M534.717 114.953h-12.734c.005-1.324.535-2.593 1.473-3.527a5 5 0 0 1 3.532-1.457h2.724c.657-.001 1.308.128 1.915.379a5.01 5.01 0 0 1 1.624 1.084 5.03 5.03 0 0 1 1.085 1.624c.251.607.381 1.258.381 1.915v-.018z"/></g><path d="M329 260.969c3.978 4.715 8.28 9.147 12.875 13.262h369.31c4.596-4.115 8.898-8.547 12.876-13.262H329z" class="B"/><path d="M510.633 216.618v46.985h32.898v-46.985c0-.338-.108-.667-.308-.939a1.57 1.57 0 0 0-.805-.572c-.148-.049-.302-.073-.458-.074h-29.738c-.209 0-.415.04-.608.12s-.368.196-.516.343a1.59 1.59 0 0 0-.344.515 1.58 1.58 0 0 0-.121.607zm12.82 16.144a3.51 3.51 0 0 1 3.512-3.513 3.51 3.51 0 0 1 3.512 3.513v5.452c0 .932-.37 1.826-1.029 2.485a3.51 3.51 0 0 1-4.966 0c-.659-.659-1.029-1.553-1.029-2.485v-5.452z" class="C"/><g class="B"><path d="M510.532 262.102v4.544a.89.89 0 0 0 .884.889h31.332a.89.89 0 0 0 .884-.889v-4.531l-33.1-.013zm-51.652-116.27v85.787c0 1.094.434 2.143 1.207 2.916a4.12 4.12 0 0 0 2.914 1.207H590.06c.541 0 1.077-.106 1.577-.313a4.12 4.12 0 0 0 2.23-2.232c.207-.5.314-1.036.314-1.578v-85.787a4.13 4.13 0 0 0-.314-1.578c-.207-.5-.51-.955-.893-1.337a4.12 4.12 0 0 0-1.337-.894c-.5-.207-1.036-.314-1.577-.314H463.001c-1.093 0-2.141.434-2.914 1.208s-1.207 1.822-1.207 2.915z"/></g><path d="M461.86 146.898v83.661c.006.583.242 1.139.656 1.548s.974.639 1.556.637h124.93c.584-.001 1.143-.233 1.556-.646s.645-.973.646-1.557v-83.643a2.21 2.21 0 0 0-2.202-2.209h-124.93a2.23 2.23 0 0 0-.846.167 2.21 2.21 0 0 0-.718.479 2.2 2.2 0 0 0-.479.717 2.21 2.21 0 0 0-.169.846z" fill="#03bcdb"/><path d="M487.336 268.588a1.37 1.37 0 0 0 .474.374c.184.088.385.134.588.134h74.331c.365 0 .714-.144.972-.402a1.38 1.38 0 0 0 .402-.972c0-.094-.009-.187-.028-.279l-1.153-5.498c-.066-.306-.235-.581-.478-.778s-.546-.306-.859-.308h-72.037c-.314.002-.617.11-.86.308a1.37 1.37 0 0 0-.477.778l-1.154 5.498c-.041.199-.038.406.01.604a1.39 1.39 0 0 0 .269.541z" class="C"/><g class="B"><use xlink:href="#C"/><path d="M556.247 261.867h-1.841c-.124 0-.224.101-.224.225v.925c0 .124.1.225.224.225h1.841c.124 0 .224-.101.224-.225v-.925c0-.124-.1-.225-.224-.225z"/><use xlink:href="#D"/><use xlink:href="#E"/><path d="M542.51 261.867h-1.84c-.124 0-.225.101-.225.225v.925c0 .124.101.225.225.225h1.84c.124 0 .225-.101.225-.225v-.925c0-.124-.101-.225-.225-.225zm-4.579 0h-1.84c-.124 0-.225.101-.225.225v.925c0 .124.101.225.225.225h1.84c.124 0 .225-.101.225-.225v-.925c0-.124-.101-.225-.225-.225z"/><use xlink:href="#F"/><path d="M528.774 261.867h-1.841c-.124 0-.224.101-.224.225v.925c0 .124.1.225.224.225h1.841c.124 0 .224-.101.224-.225v-.925c0-.124-.1-.225-.224-.225zm-4.579 0h-1.841c-.124 0-.224.101-.224.225v.925c0 .124.1.225.224.225h1.841c.124 0 .224-.101.224-.225v-.925c0-.124-.1-.225-.224-.225zm-4.578 0h-1.841c-.124 0-.224.101-.224.225v.925c0 .124.1.225.224.225h1.841c.124 0 .224-.101.224-.225v-.925c0-.124-.1-.225-.224-.225zm-4.579 0h-1.841c-.124 0-.224.101-.224.225v.925c0 .124.1.225.224.225h1.841c.124 0 .224-.101.224-.225v-.925c0-.124-.1-.225-.224-.225zm-4.579 0h-1.841c-.124 0-.224.101-.224.225v.925c0 .124.1.225.224.225h1.841c.123 0 .224-.101.224-.225v-.925c0-.124-.101-.225-.224-.225zm-4.579 0h-1.84c-.124 0-.225.101-.225.225v.925c0 .124.101.225.225.225h1.84c.124 0 .225-.101.225-.225v-.925c0-.124-.101-.225-.225-.225zm-4.579 0h-1.84c-.124 0-.225.101-.225.225v.925c0 .124.101.225.225.225h1.84c.124 0 .225-.101.225-.225v-.925c0-.124-.101-.225-.225-.225zm-4.578 0h-1.84c-.124 0-.225.101-.225.225v.925c0 .124.101.225.225.225h1.84c.124 0 .225-.101.225-.225v-.925c0-.124-.101-.225-.225-.225zm-4.579 0h-1.841c-.123 0-.224.101-.224.225v.925c0 .124.101.225.224.225h1.841c.124 0 .224-.101.224-.225v-.925c0-.124-.1-.225-.224-.225zm68.735 2.291h-1.84c-.124 0-.225.101-.225.225v.925c0 .124.101.225.225.225h1.84c.124 0 .225-.101.225-.225v-.925c0-.124-.101-.225-.225-.225zm-4.578 0h-1.84c-.124 0-.225.101-.225.225v.925c0 .124.101.225.225.225h1.84c.124 0 .225-.101.225-.225v-.925c0-.124-.101-.225-.225-.225zm-4.579 0h-1.84c-.124 0-.225.101-.225.225v.925c0 .124.101.225.225.225h1.84c.124 0 .225-.101.225-.225v-.925c0-.124-.101-.225-.225-.225zm-4.578 0h-1.841c-.123 0-.224.101-.224.225v.925c0 .124.101.225.224.225h1.841c.124 0 .224-.101.224-.225v-.925c0-.124-.1-.225-.224-.225zm-4.579 0h-1.841c-.124 0-.224.101-.224.225v.925c0 .124.1.225.224.225h1.841c.124 0 .224-.101.224-.225v-.925c0-.124-.1-.225-.224-.225zm-4.578 0h-1.841c-.124 0-.224.101-.224.225v.925c0 .124.1.225.224.225h1.841c.124 0 .224-.101.224-.225v-.925c0-.124-.1-.225-.224-.225zm-4.579 0h-1.841c-.124 0-.224.101-.224.225v.925c0 .124.1.225.224.225h1.841c.124 0 .224-.101.224-.225v-.925c0-.124-.1-.225-.224-.225zm-4.579 0h-1.841c-.124 0-.224.101-.224.225v.925c0 .124.1.225.224.225h1.841c.124 0 .224-.101.224-.225v-.925c0-.124-.1-.225-.224-.225zm-4.579 0h-1.841c-.124 0-.224.101-.224.225v.925c0 .124.1.225.224.225h1.841c.123 0 .224-.101.224-.225v-.925c0-.124-.101-.225-.224-.225zm-4.579 0h-1.84c-.124 0-.225.101-.225.225v.925c0 .124.101.225.225.225h1.84c.124 0 .225-.101.225-.225v-.925c0-.124-.101-.225-.225-.225zm-4.579 0h-1.84c-.124 0-.225.101-.225.225v.925c0 .124.101.225.225.225h1.84c.124 0 .225-.101.225-.225v-.925c0-.124-.101-.225-.225-.225zm-4.578 0h-1.84c-.124 0-.225.101-.225.225v.925c0 .124.101.225.225.225h1.84c.124 0 .225-.101.225-.225v-.925c0-.124-.101-.225-.225-.225zm-4.579 0h-1.841c-.123 0-.224.101-.224.225v.925c0 .124.101.225.224.225h1.841c.124 0 .224-.101.224-.225v-.925c0-.124-.1-.225-.224-.225zm-4.578 0h-1.841c-.124 0-.224.101-.224.225v.925c0 .124.1.225.224.225h1.841c.124 0 .224-.101.224-.225v-.925c0-.124-.1-.225-.224-.225zm-4.579 0h-1.841c-.124 0-.224.101-.224.225v.925c0 .124.1.225.224.225h1.841c.124 0 .224-.101.224-.225v-.925c0-.124-.1-.225-.224-.225zm-4.579 0h-1.841c-.124 0-.224.101-.224.225v.925c0 .124.1.225.224.225h1.841c.124 0 .224-.101.224-.225v-.925c0-.124-.1-.225-.224-.225zm46.703 2.748h-17.866c-.124 0-.224.101-.224.225v.925c0 .124.1.225.224.225h17.866c.124 0 .224-.101.224-.225v-.925c0-.124-.1-.225-.224-.225zM470.34 156.239h116.899a.46.46 0 0 0 .458-.459c0-.121-.049-.238-.134-.324s-.203-.134-.324-.134H470.34a.46.46 0 0 0-.458.458c0 .122.048.238.134.324a.46.46 0 0 0 .324.135z"/><use xlink:href="#G"/><path d="M569.877 152.909c1.504 0 2.724-1.247 2.724-2.786s-1.22-2.785-2.724-2.785-2.725 1.247-2.725 2.785 1.22 2.786 2.725 2.786zm-9.414 0c1.504 0 2.724-1.247 2.724-2.786s-1.22-2.785-2.724-2.785-2.725 1.247-2.725 2.785 1.22 2.786 2.725 2.786zm-84.944-4.375c-.001.066.011.131.036.192s.062.117.108.164.102.084.163.109.126.039.192.039h6.685a.51.51 0 0 0 .46-.506.51.51 0 0 0-.46-.507h-6.685c-.066.001-.132.015-.193.04a.49.49 0 0 0-.162.111.51.51 0 0 0-.108.165.49.49 0 0 0-.036.193zm0 1.9a.49.49 0 0 0 .036.193.51.51 0 0 0 .108.163c.047.047.102.084.163.11a.5.5 0 0 0 .192.038h6.685c.125-.012.242-.07.327-.164a.51.51 0 0 0 .133-.342.51.51 0 0 0-.133-.342c-.085-.094-.202-.152-.327-.164h-6.685c-.066 0-.132.014-.193.04a.49.49 0 0 0-.162.111c-.046.047-.083.103-.108.164a.49.49 0 0 0-.036.193zm0 1.898a.49.49 0 0 0 .036.193.51.51 0 0 0 .108.165c.046.047.101.085.162.11s.127.04.193.041h6.685c.125-.012.242-.071.327-.165a.51.51 0 0 0-.327-.848h-6.685c-.066 0-.132.013-.192.039s-.116.062-.163.109a.49.49 0 0 0-.144.356z"/></g><g class="D"><use xlink:href="#H"/><use xlink:href="#I"/><use xlink:href="#J"/><use xlink:href="#K"/><path d="M519.278 166.803h14.926a1.32 1.32 0 0 1 1.319 1.319 1.32 1.32 0 0 1-1.319 1.319h-14.926a1.32 1.32 0 0 1-1.319-1.319 1.32 1.32 0 0 1 1.319-1.319z"/><use xlink:href="#L"/><use xlink:href="#M"/><path d="M517.757 172.979h2.399a1.32 1.32 0 0 1 1.319 1.319 1.32 1.32 0 0 1-1.319 1.319h-2.399a1.32 1.32 0 0 1-1.319-1.319c0-.35.139-.686.387-.933a1.32 1.32 0 0 1 .932-.386z"/><use xlink:href="#N"/><use xlink:href="#O"/><path d="M489.827 178.934h2.4a1.32 1.32 0 0 1 1.318 1.319 1.32 1.32 0 0 1-1.318 1.319h-2.4a1.32 1.32 0 0 1-1.318-1.319 1.32 1.32 0 0 1 1.318-1.319zm27.472 0h2.399a1.32 1.32 0 0 1 1.319 1.319 1.32 1.32 0 0 1-1.319 1.319h-2.399a1.32 1.32 0 0 1-1.319-1.319c0-.35.139-.686.387-.933a1.32 1.32 0 0 1 .932-.386zm7.784 0h2.4a1.32 1.32 0 0 1 1.318 1.319 1.32 1.32 0 0 1-1.318 1.319h-2.4a1.32 1.32 0 0 1-1.318-1.319 1.32 1.32 0 0 1 1.318-1.319z"/><use xlink:href="#P"/><path d="M533.93 178.715h14.927a1.32 1.32 0 0 1 .932 2.252c-.247.248-.583.387-.932.387H533.93c-.35 0-.685-.139-.932-.387s-.387-.583-.387-.933a1.32 1.32 0 0 1 1.319-1.319zm-36.776 6.176h2.399a1.32 1.32 0 0 1 1.319 1.319c0 .35-.139.686-.387.933a1.32 1.32 0 0 1-.932.386h-2.399a1.32 1.32 0 0 1-1.319-1.319 1.32 1.32 0 0 1 1.319-1.319zm27.471 0h2.4a1.32 1.32 0 0 1 1.318 1.319 1.32 1.32 0 0 1-1.318 1.319h-2.4a1.32 1.32 0 0 1-1.318-1.319 1.32 1.32 0 0 1 1.318-1.319zm7.784 0h2.4a1.32 1.32 0 0 1 1.318 1.319 1.32 1.32 0 0 1-1.318 1.319h-2.4a1.32 1.32 0 0 1-1.318-1.319 1.32 1.32 0 0 1 1.318-1.319zm-27.784-.221h14.927a1.32 1.32 0 0 1 1.319 1.319c0 .35-.139.686-.387.933a1.32 1.32 0 0 1-.932.387h-14.927c-.349 0-.685-.139-.932-.387a1.32 1.32 0 0 1 .932-2.252zm-1.977 23.904h2.399c.35 0 .685.139.932.387s.387.583.387.933a1.32 1.32 0 0 1-1.319 1.319h-2.399a1.32 1.32 0 0 1-1.319-1.319 1.32 1.32 0 0 1 1.319-1.32zm7.784 0h2.399a1.32 1.32 0 0 1 1.319 1.32 1.32 1.32 0 0 1-1.319 1.319h-2.399a1.32 1.32 0 0 1-1.319-1.319c0-.35.139-.686.387-.933a1.32 1.32 0 0 1 .932-.387zm8.846.221h14.926a1.32 1.32 0 0 1 1.319 1.319 1.32 1.32 0 0 1-1.319 1.32h-14.926a1.32 1.32 0 0 1-1.319-1.32 1.32 1.32 0 0 1 1.319-1.319zm-44.103-.221h2.399c.35 0 .686.139.933.387a1.32 1.32 0 0 1-.933 2.252h-2.399a1.32 1.32 0 0 1-1.319-1.319c0-.35.139-.686.387-.933a1.32 1.32 0 0 1 .932-.387zm7.473.221h14.926a1.32 1.32 0 0 1 .933 2.252c-.247.248-.583.387-.933.387h-14.926a1.32 1.32 0 0 1-1.319-1.32 1.32 1.32 0 0 1 1.319-1.319zm-.147-6.176h2.4c.349 0 .685.139.932.387a1.32 1.32 0 0 1 .386.933c0 .349-.139.685-.386.933a1.32 1.32 0 0 1-.932.386h-2.4a1.32 1.32 0 0 1-.932-.386c-.247-.248-.386-.584-.386-.933a1.32 1.32 0 0 1 .386-.933c.247-.248.583-.387.932-.387zm27.472 0h2.399a1.32 1.32 0 0 1 1.319 1.32c0 .349-.139.685-.386.933a1.32 1.32 0 0 1-.933.386h-2.399a1.32 1.32 0 0 1-1.319-1.319c0-.35.139-.686.387-.933a1.32 1.32 0 0 1 .932-.387zm7.784 0h2.399c.35 0 .686.139.933.387a1.32 1.32 0 0 1 .386.933c0 .349-.139.685-.386.933a1.32 1.32 0 0 1-.933.386h-2.399a1.32 1.32 0 0 1-1.319-1.319c0-.35.139-.686.387-.933a1.32 1.32 0 0 1 .932-.387zm-27.783.219h14.927a1.32 1.32 0 0 1 .932 2.252c-.247.248-.583.387-.932.387h-14.927c-.35 0-.685-.139-.932-.387s-.387-.583-.387-.933a1.32 1.32 0 0 1 1.319-1.319z"/><use xlink:href="#Q"/><path d="M517.299 196.664h2.399a1.32 1.32 0 0 1 .933.386c.247.248.386.584.386.933a1.32 1.32 0 0 1-.386.933c-.247.248-.583.387-.933.387h-2.399c-.35 0-.685-.139-.932-.387s-.387-.583-.387-.933a1.32 1.32 0 0 1 1.319-1.319zm7.784 0h2.4a1.32 1.32 0 0 1 .932.386c.247.248.386.584.386.933a1.32 1.32 0 0 1-.386.933c-.247.248-.583.387-.932.387h-2.4c-.349 0-.685-.139-.932-.387a1.32 1.32 0 0 1-.386-.933c0-.349.139-.685.386-.933a1.32 1.32 0 0 1 .932-.386zm-27.783.219h14.927a1.32 1.32 0 0 1 .932 2.252c-.247.248-.583.387-.932.387H497.3c-.35 0-.685-.139-.932-.387s-.387-.583-.387-.933a1.32 1.32 0 0 1 1.319-1.319zm-.146-6.174h2.399a1.32 1.32 0 0 1 1.319 1.319c0 .35-.139.686-.387.933a1.32 1.32 0 0 1-.932.387h-2.399c-.35 0-.686-.139-.933-.387a1.32 1.32 0 0 1 .933-2.252z"/><use xlink:href="#R"/><path d="M532.409 190.709h2.4a1.32 1.32 0 0 1 .932 2.252c-.247.248-.583.387-.932.387h-2.4c-.349 0-.685-.139-.932-.387a1.32 1.32 0 0 1 .932-2.252zm-27.784.219h14.927a1.32 1.32 0 0 1 1.319 1.319c0 .35-.139.686-.387.933a1.32 1.32 0 0 1-.932.386h-14.927a1.32 1.32 0 0 1-1.318-1.319 1.32 1.32 0 0 1 1.318-1.319z"/></g><path d="M489.214 294.133l-.302.147-1.923.916-5.87 2.625a130.33 130.33 0 0 1-16.026 5.497c-.915-5.712-1.804-19.186-2.655-29.095l-.458-5.135a44.02 44.02 0 0 0-.866-5.992c-.04-.16-.1-.314-.178-.459.087.793.178 3.157.265 6.437l.133 5.136.664 29.906-1.918.458-1.218.275-1.484.32-1.552.316c-8.455 1.663-17.052 2.498-25.668 2.492h-1.713-.526l-1.557-.032a131.91 131.91 0 0 1-30.146-4.347l.398-29.37.069-5.136.027-1.947a7.13 7.13 0 0 0-.403 1.947c-.16 1.251-.325 3.024-.49 5.136l-1.941 28.728c-7.917-2.253-13.704-4.31-20.938-7.93l-.852-.435.156-1.067c.819-5.699-.147-13.116.76-19.31.691-4.778 1.405-9.368 2.124-13.262.87-4.687 1.754-8.37 2.628-10.161l2.99-6.048 1.241-2.469.655-1.287 2.747-5.264 1.648-2.978c.591-1.031 1.113-1.883 1.543-2.529a25.34 25.34 0 0 1 13.407-10.174l.137-.037.133.055.151.069 8.727-3.207 3.901-9.373 20.014-1.233 3.232 2.46 1.653 1.26 1.763 1.343 3.242 2.469.916.284 1.373.421 9.364 2.877.096-.041.137.037c5.002 1.603 9.381 4.725 12.528 8.933a21.28 21.28 0 0 1 .879 1.242c.76 1.127 1.785 2.909 2.994 5.144l1.58 2.978c.334.637 3.205 9.621 6.025 18.842 2.624 8.613 5.179 17.409 5.495 19.649l.183 1.255 1.117 7.788 1.557 10.739.032.137z" class="B"/><path opacity=".2" d="M468.006 260.952l-3.892-15.026-3.434 12.965 7.326 2.061z" fill="#000"/><path d="M336.248 260.778a2.93 2.93 0 0 0 1.091 1.451c.507.356 1.114.543 1.734.533l12.129-.317a2.9 2.9 0 0 0 1.728-.608c.495-.384.853-.918 1.02-1.522l1.712-18.366c.609.276 1.273.412 1.941.399a4.42 4.42 0 0 0 3.096-1.373c.81-.85 1.248-1.987 1.22-3.16a4.43 4.43 0 0 0-1.372-3.098 4.42 4.42 0 0 0-3.159-1.22c-.268-.001-.535.028-.797.087-.283-.309-.628-.554-1.012-.721s-.799-.25-1.217-.246l-18.659.458c-.154.009-.307.029-.458.06a2.91 2.91 0 0 0-1.867 1.218c-.437.637-.604 1.421-.463 2.181.024.131.057.26.101.385l3.232 23.859zm19.767-20.075l1.222-4.375a3.01 3.01 0 0 0 0-1.548c.06 0 .11-.028.169-.028.84-.02 1.652.294 2.26.874a3.17 3.17 0 0 1 .107 4.477c-.58.608-1.376.96-2.215.98a3 3 0 0 1-1.553-.38h.01z" class="C"/><path d="M688.497 294.591l-.842.421c-7.235 3.619-13.022 5.676-20.939 7.93-.668-7.467-1.314-20.592-1.941-28.729-.165-2.111-.33-3.884-.49-5.135-.042-.665-.178-1.32-.403-1.947l.028 1.947.068 5.135.399 29.37a132.2 132.2 0 0 1-30.147 4.348l-1.556.032h-.527-1.712c-10.731.01-21.423-1.287-31.841-3.862l.664-29.906.133-5.135c.087-3.281.179-5.644.266-6.437-.079.145-.139.299-.179.458a43.86 43.86 0 0 0-.865 5.992l-.481 5.136c-.852 9.909-1.74 23.364-2.656 29.095a130.54 130.54 0 0 1-16.025-5.497 129.3 129.3 0 0 1-8.096-3.707l1.571-10.83 1.3-9.047c.687-4.664 24.02-55.025 29.519-56.807l.138-.037.096.041 9.359-2.849 1.373-.422.916-.284 3.242-2.469 1.763-1.342 1.653-1.26 3.232-2.46 20.032 1.214 3.896 9.387 8.727 3.207.152-.069.132-.055.138.037c5.497 1.763 10.227 5.353 13.406 10.174a45.04 45.04 0 0 1 1.543 2.529c.504.875 1.053 1.874 1.649 2.978l2.747 5.264.655 1.287 1.24 2.469 2.99 6.048c.875 1.791 1.759 5.474 2.628 10.161.719 3.894 1.434 8.484 2.125 13.262.916 6.194-.06 13.611.76 19.31.055.366.092.719.16 1.054z" class="B"/><path d="M629.799 202.966c12.856 0 23.278-10.427 23.278-23.29s-10.422-23.291-23.278-23.291-23.278 10.427-23.278 23.291 10.422 23.29 23.278 23.29z" fill="#ffb6b6"/><path opacity=".2" d="M592.578 260.952l3.892-15.026 3.434 12.965-7.326 2.061z" fill="#000"/><path d="M696.107 251.16c-1.373 19.186.051 27.634-7.632 43.453a131.1 131.1 0 0 1-21.758 8.347l-2.34.641a131.98 131.98 0 0 1-30.146 4.348l-1.557.032h-.527-1.712a132.22 132.22 0 0 1-31.84-3.862l-3.119-.811a130.54 130.54 0 0 1-16.025-5.497c-2.747-1.146-5.446-2.381-8.095-3.707l-1.79-.916c-3.022-5.337-4.762-11.833-4.762-19.639 2.078-13.451 126.661-33.988 131.303-22.389z" class="C"/><path opacity=".2" d="M696.103 254.447l.242-3.693c-4.643-11.595-129.225 8.938-131.326 22.389a43.45 43.45 0 0 0 .146 3.6c5.092-13.276 123.447-32.796 130.938-22.296z" fill="#000"/><path d="M561.681 252.068l10.229-5.121-8.525-23.016-2.244-11.609c-.29-1.509-.972-2.915-1.976-4.078a8.77 8.77 0 0 0-3.747-2.548 8.76 8.76 0 0 0-4.517-.336 8.77 8.77 0 0 0-4.082 1.964c-1.725 1.481-2.808 3.573-3.021 5.837a8.78 8.78 0 0 0 1.881 6.299l8.333 10.426 7.669 22.182z" fill="#ffb6b6"/><path d="M571.91 242.686l-13.636 6.821 10.348 32.439c.744 2.329 2.076 4.427 3.867 6.09a14.19 14.19 0 0 0 15.144 2.675c2.777-1.17 5.111-3.193 6.662-5.778l27.436-47.053c1.947-3.243 2.549-7.119 1.677-10.801a14.48 14.48 0 0 0-6.343-8.898c-3.244-2.054-7.171-2.735-10.917-1.893s-7.005 3.137-9.06 6.382c-.28.444-.535.903-.764 1.375l-16.745 35.705-7.669-17.064z" class="B"/><path d="M424.929 201.36c14.146 0 25.613-11.474 25.613-25.627s-11.467-25.628-25.613-25.628-25.614 11.474-25.614 25.628 11.468 25.627 25.614 25.627z" fill="#a0616a"/><g class="C"><path d="M399.622 158.07c2.083-2.808 5.078-4.805 7.367-7.449 1.255-1.447 2.289-3.092 3.709-4.388 2.628-2.41 6.295-3.4 9.853-3.523 3.901-.102 7.772.715 11.298 2.386s6.612 4.15 9.004 7.234l5.582-3.275 2.207 5.809a3.38 3.38 0 0 1 2.172-.83c.799-.011 1.577.262 2.194.769a3.39 3.39 0 0 1 .789 4.298c.458-1.374 2.473-1.663 3.59-.756s1.419 2.515 1.236 3.94a7.92 7.92 0 0 1-1.986 4.217c-1.069 1.175-2.467 2.001-4.012 2.371-2.431.54-5.256-.028-7.202 1.525-1.557 1.246-2.029 3.514-3.617 4.719-1.96 1.484-4.73.797-7.166 1.127-4.263.573-7.637 4.934-7.125 9.208-.384-1.347-.792-2.749-1.666-3.83s-2.349-1.832-3.691-1.434c-2.22.665-2.582 3.693-2.042 5.956 1.442 5.969 6.868 15.631 6.868 15.631-7.019 2.772-15.38.151-20.796-5.104s-8.242-12.699-9.464-20.157c-1.058-6.303-.912-13.299 2.898-18.444zm259.348 34.444c4.872-11.179 2.111-21.463-3.828-26.919-2.335-5.237-5.44-9.277-8.993-10.226-1.717-1.104-3.383-2.4-5.233-3.06-.862-.322-1.78-.467-2.699-.425s-1.82.269-2.649.668l-.943-.252c-.801-2.048-1.74-2.089-2.784-.742-4.02-1.874-7.642-2.712-10.865-2.712-10.531 0-16.731 8.906-18.379 19.671l8.786 2.341 3.054-4.87-1.41 5.31 4.849 1.287c7.381 9.621-1.452 31.798-12.647 44.14 2.665-.736 5.319-1.359 7.963-1.869l9.615-14.092-5.952 12.828c3.09-.459 7.033 0 11.341.856 1.452-1.896 2.216-4.425 1.465-6.679a25.57 25.57 0 0 1 2.5 7.568c9.094 2.222 21.498 3.363 28.182 4.206 5.403-1.764 5.417-21.688-1.373-27.029z"/><path d="M662.143 154.494c3.567 7.994-3.635 11.453-10.233 11.338-5.953-.087-11.026-4.279-11.328-10.234-.074-1.417.133-2.834.607-4.171a10.8 10.8 0 0 1 2.158-3.62c.95-1.053 2.098-1.909 3.379-2.517a10.79 10.79 0 0 1 4.085-1.031c5.952-.307 8.901 4.788 11.332 10.235z"/></g><path d="M496.581 284.653l-5.879-9.812 19.547-14.834 8.127-8.59a8.77 8.77 0 0 1 3.858-2.372 8.78 8.78 0 0 1 4.527-.133c1.494.353 2.87 1.092 3.99 2.143s1.944 2.378 2.391 3.848c.661 2.178.451 4.527-.586 6.553s-2.82 3.569-4.972 4.305l-12.633 4.315-18.37 14.577z" fill="#a0616a"/><path d="M500.821 284.33l-9.158 7.632-2.468 2.057-.288.238-1.923.917-5.87 2.625c-5.217 2.177-10.57 4.014-16.026 5.497l-3.118.811-1.918.458-1.218.275-1.484.321-1.552.316c-1.391-1.326-2.499-2.921-3.256-4.688s-1.148-3.67-1.148-5.593v-.38l1.469-37.717.678-16.684c.105-3.777 1.68-7.363 4.39-9.993s6.34-4.099 10.115-4.09a13.45 13.45 0 0 1 1.305.064c.312.403.6.82.879 1.242.76 1.127 1.786 2.909 2.995 5.144l1.58 2.978c.334.637 3.205 9.621 6.025 18.843l-1.236 9.62-2.244 17.285 9.158-6.02 6.456-4.242.764 1.278 1.992 3.326 3.846 6.414 1.255 2.066z" class="B"/><path d="M495.803 273.55l-.064 2.291c-.095 2.085-.336 4.161-.724 6.212-.631 3.445-1.758 6.78-3.347 9.9-.21.417-.435.829-.664 1.232l-1.79.917-.302.146a133.72 133.72 0 0 1-7.784 3.56 130.54 130.54 0 0 1-16.025 5.497l-3.118.811c-2.04.504-4.097.962-6.173 1.374a132.59 132.59 0 0 1-25.668 2.493h-1.712-.527l-1.557-.032a131.98 131.98 0 0 1-30.146-4.348l-2.34-.641a131.22 131.22 0 0 1-21.758-8.347c-7.683-15.819-6.24-24.281-7.632-43.453 2.857-7.142 51.194-2.098 88.41 5.956 10.101 2.19 19.377 4.581 26.708 7.059 7.573 2.534 13.063 5.108 15.215 7.527.505.505.852 1.147.998 1.846z" class="C"/><path opacity=".2" d="M364.481 254.447l-.243-3.693c4.643-11.595 129.225 8.938 131.327 22.389a43.45 43.45 0 0 1-.147 3.6c-5.091-13.276-123.446-32.796-130.937-22.296z" fill="#000"/></g><g fill="#fff"><rect x="26" y="51" width="328" height="54" rx="12"/><path d="M50.16 162.88c-.868 0-1.008-.14-1.008-1.064v-6.804h7.336v-3.22h-10.78v-4.536h8.596v-3.192h-8.596v-3.78H42.32v3.78h-3.612l.84-2.716-3.416-.672c-.588 2.856-1.904 6.636-3.724 8.932.784.308 2.184.98 2.94 1.456.784-1.036 1.512-2.38 2.156-3.808h4.816v4.536H31.596v3.22h6.608c-.42 3.696-1.484 6.832-7.056 8.652.756.7 1.68 2.044 2.072 2.94 6.44-2.436 7.868-6.608 8.484-11.592h4.088v6.804c0 3.164.728 4.2 3.864 4.2h3.248c2.604 0 3.5-1.204 3.836-5.628-.896-.224-2.352-.784-3.024-1.344-.112 3.304-.28 3.836-1.12 3.836H50.16zm24.584-3.388v-.924h4.872v.924h-4.872zm0-3.36h4.872v.896h-4.872v-.896zm13.272 0v.896h-5.124v-.896h5.124zm0 3.36h-5.124v-.924h5.124v.924zm5.572 2.492H82.892v-.896h8.372v-6.58h-8.372v-.812h9.8v-2.1h-9.8v-.616h2.8v-1.848h7.868v-1.876h-7.868v-.896h6.86v-1.82h-6.86v-.896h7.336v-1.876h-7.336v-1.456H82.64v9.772h-3.024v1.512h-3.052c2.492-1.232 3.388-3.052 3.388-5.18v-6.132h-2.996v1.484h-7.28v1.876h7.28v.896H70.32v1.82h6.636v.028c0 .252 0 .476-.028.7l-8.092.364.196 1.932 7.028-.448c-.7.672-1.96 1.148-4.144 1.372.308.308.7.812 1.064 1.288h-2.996v2.1h9.632v.812h-8.008v6.58h8.008v.896H68.892v2.184h10.724v2.24h3.276v-2.24h10.696v-2.184zm24.5-20.44l-3.696-.308c-.056 1.008-.252 2.1-.56 3.22h-1.344c-1.428 0-3.5-.112-4.928-.336v3.276c1.54.112 3.584.168 4.732.168h.364c-1.26 2.52-3.248 5.012-6.188 7.728l2.996 2.24c.952-1.232 1.764-2.24 2.604-3.08 1.064-1.036 2.8-1.932 4.368-1.932.784 0 1.54.252 1.96.952-3.192 1.652-6.552 3.892-6.552 7.476 0 3.612 3.248 4.676 7.644 4.676 2.632 0 6.076-.224 7.924-.476l.112-3.612c-2.464.476-5.572.784-7.952.784-2.744 0-4.06-.42-4.06-1.96 0-1.4 1.12-2.492 3.22-3.696-.028 1.232-.056 2.576-.14 3.416h3.36l-.112-4.928c1.708-.784 3.304-1.4 4.564-1.904.952-.364 2.436-.924 3.332-1.176l-1.4-3.248a52.74 52.74 0 0 1-3.108 1.456l-3.78 1.652c-.616-1.428-2.016-2.156-3.724-2.156-.924 0-2.436.224-3.164.56a19.55 19.55 0 0 0 1.596-2.856c3.024-.084 6.468-.308 9.128-.7l.028-3.248c-2.464.42-5.264.672-7.924.812.364-1.176.56-2.1.7-2.8zm31.78 11.396h11.704v1.736h-11.704v-1.736zm0-4.452h11.704v1.736h-11.704v-1.736zm0-4.424h11.704v1.736h-11.704v-1.736zm11.76 18.984c-1.064 0-1.232-.112-1.232-1.008v-4.452h4.564v-16.436h-18.312v16.436h3.416c-.476 3.052-1.68 4.928-7.42 5.992.644.7 1.54 2.072 1.848 2.968 6.916-1.568 8.568-4.508 9.156-8.96h3.388v4.48c0 3.136.784 4.144 4.116 4.144h3.696c2.772 0 3.64-1.148 4.004-5.572-.868-.224-2.352-.784-3.052-1.316-.14 3.248-.308 3.724-1.26 3.724h-2.912zm18.844-14.392l1.596 3.92c2.912-1.26 9.548-4.06 13.664-4.06 3.36 0 5.18 2.016 5.18 4.648 0 4.872-5.936 7.056-13.524 7.252l1.624 3.724c9.856-.504 15.904-4.564 15.904-10.92 0-5.18-3.976-8.092-9.044-8.092-4.088 0-9.8 2.016-11.956 2.688-1.008.28-2.408.672-3.444.84zm57.512-6.916h-4.06a13.34 13.34 0 0 1 .308 1.932c.056.756.084 2.212.112 3.78l-3.164.056a29.45 29.45 0 0 1-4.228-.308v3.556l4.312.14c1.036 0 2.072-.028 3.136-.056v1.008c0 4.732-.448 7.224-2.604 9.464-.784.868-2.184 1.764-3.248 2.24l3.22 2.548c5.6-3.556 6.104-7.616 6.104-14.224V150.7c1.568-.084 3.024-.196 4.144-.336l.028-3.64c-1.148.224-2.632.392-4.2.504v-3.584c.028-.616.056-1.288.14-1.904zm-13.916.476l-4.144-.42c-.028.7-.056 1.652-.196 2.436-.336 2.268-.896 6.58-.896 11.172 0 3.472.98 7.392 1.596 9.072l3.108-.308a19.46 19.46 0 0 1-.056-1.148 6.31 6.31 0 0 1 .168-1.372c.336-1.596 1.092-4.424 1.904-6.832l-1.736-1.12c-.476 1.036-.98 2.38-1.344 3.248-.756-3.472.224-9.352.924-12.46a22.32 22.32 0 0 1 .672-2.268zm31.36 2.52l.364 3.836c3.248-.7 8.96-1.316 11.592-1.596-1.876 1.428-4.144 4.62-4.144 8.652 0 6.048 5.544 9.212 11.396 9.604l1.316-3.836c-4.732-.252-9.044-1.932-9.044-6.524 0-3.332 2.52-6.972 5.908-7.868 1.484-.336 3.892-.336 5.404-.364l-.028-3.584c-1.96.056-5.04.252-7.924.476l-12.068 1.064c-.56.056-1.652.112-2.772.14zM38.54 197.16h3.5v-3.136h-3.5v-5.74h-3.192v5.74h-4.004v3.136h3.612c-.896 3.332-2.52 7.14-4.34 9.352.532.84 1.26 2.184 1.568 3.136 1.204-1.54 2.268-3.836 3.164-6.3v11.06h3.192V202.76c.784 1.26 1.596 2.576 2.016 3.472l1.904-2.716c-.56-.7-2.94-3.584-3.92-4.648v-1.708zm7.672 12.404v-3.584h6.58v3.584h-6.58zm6.58-10.164v3.556h-6.58V199.4h6.58zm0-6.468v3.472h-6.58v-3.472h6.58zm-9.772-3.136v24.388h3.192v-1.596h6.58v1.428h3.36v-24.22H43.02zm47.796-.028c-.42 1.372-1.288 3.332-2.016 4.564l2.464.952c.784-1.176 1.792-2.884 2.716-4.508l-3.164-1.008zm3.416 8.988c-1.512-1.26-4.34-2.996-6.636-4.34.448-1.764.616-3.78.7-6.104h-3.22c-.224 5.544-.672 8.736-6.496 10.556.7.588 1.512 1.82 1.848 2.632 3.024-1.036 4.844-2.436 5.992-4.284 2.128 1.344 4.424 2.94 5.6 4.06l2.212-2.52zm-13.3 9.576c1.372-1.344 2.24-3.556 2.604-5.712l-2.912-.588c-.364 1.904-1.204 3.864-2.436 4.928l2.744 1.372zm.028-18.396c-.308 1.736-1.064 3.612-2.1 4.62l2.604 1.12c1.204-1.26 1.932-3.332 2.212-5.18l-2.716-.56zm-3.164-.784h-8.232v2.52h8.232v-2.52zm1.008 3.752h-10.64v2.632h10.64v-2.632zm-.924 3.892h-8.4v2.548h8.4v-2.548zm-8.4 6.328h8.4v-2.492h-8.4v2.492zm5.6 4.004v3.22h-2.884v-3.22h2.884zm2.828-2.632h-8.512v9.548h2.8v-1.092h5.712v-8.456zm13.384 3.164c.868-1.204 1.96-3.052 2.94-4.816l-3.276-1.008c-.504 1.484-1.428 3.5-2.212 4.844-.392-.896-.532-1.736-.532-2.352V200.1h-3.388v4.228c0 1.876-1.428 5.544-6.776 7.42.588.672 1.484 1.96 1.82 2.716 3.864-1.4 6.104-4.424 6.664-6.16.504 1.736 2.52 4.844 6.048 6.16.448-.812 1.316-2.072 1.904-2.828-3.304-1.232-4.984-3.192-5.74-4.9l2.548.924zm23.576-17.864l-4.508-.056c.252 1.12.364 2.464.364 3.78 0 2.408-.28 9.772-.28 13.524 0 4.788 2.968 6.804 7.56 6.804 6.384 0 10.36-3.752 12.152-6.44l-2.548-3.08c-2.016 3.052-4.956 5.712-9.576 5.712-2.184 0-3.864-.924-3.864-3.752 0-3.472.224-9.744.336-12.768a44.03 44.03 0 0 1 .364-3.724zm27.992 2.94l.364 3.836c3.248-.7 8.96-1.316 11.592-1.596-1.876 1.428-4.144 4.62-4.144 8.652 0 6.048 5.544 9.212 11.396 9.604l1.316-3.836c-4.732-.252-9.044-1.932-9.044-6.524 0-3.332 2.52-6.972 5.908-7.868 1.484-.336 3.892-.336 5.404-.364l-.028-3.584c-1.96.056-5.04.252-7.924.476l-12.068 1.064c-.56.056-1.652.112-2.772.14zm41.244-1.932l.14 3.612c.728-.112 1.708-.196 2.268-.224 1.288-.084 3.696-.168 4.816-.224-.644 1.316-1.456 3.22-2.24 5.068-5.628.252-9.576 3.556-9.576 7.896 0 2.828 1.848 4.536 4.312 4.536 1.904 0 3.248-.784 4.368-2.464.98-1.54 2.156-4.34 3.164-6.72 2.408.336 4.648 1.176 6.636 2.268-.924 2.548-2.884 5.208-7.112 7.028l2.968 2.436c3.752-1.96 5.88-4.424 7.112-7.588.868.644 1.68 1.288 2.408 1.96l1.624-3.892c-.812-.56-1.82-1.204-2.996-1.876.28-1.568.42-3.304.532-5.18l-3.668-.42c.084.84.084 1.96 0 3.052l-.084.952c-1.82-.784-3.892-1.456-6.076-1.792 1.008-2.38 2.072-4.816 2.8-6.02.224-.392.56-.756.952-1.176l-2.24-1.736c-.476.196-1.204.364-1.904.392a93.11 93.11 0 0 1-5.88.252c-.616 0-1.568-.056-2.324-.14zm-1.316 15.596c0-1.764 1.764-3.668 4.9-4.144-.784 1.764-1.54 3.528-2.268 4.564-.504.7-.896.98-1.456.98-.644 0-1.176-.476-1.176-1.4zm39.144 2.016c0-1.204 1.316-1.96 3.5-1.96a15.23 15.23 0 0 1 2.296.196c.028.392.028.728.028.98 0 1.876-.644 2.66-2.436 2.66-1.96 0-3.388-.504-3.388-1.876zm9.38-18.872h-4.228c.168.7.252 1.904.308 3.276.028 1.204.028 2.856.028 4.564 0 1.484.112 3.864.196 6.048a15.91 15.91 0 0 0-1.652-.084c-5.152 0-7.644 2.324-7.644 5.236 0 3.808 3.276 5.124 7.28 5.124 4.704 0 5.964-2.352 5.964-4.844 0-.28 0-.616-.028-.98 2.492 1.148 4.592 2.8 6.188 4.396l2.156-3.332c-1.932-1.792-4.956-3.752-8.512-4.788-.14-2.072-.252-4.312-.308-5.992 2.268-.056 5.572-.196 7.924-.392l-.112-3.332c-2.324.28-5.6.392-7.84.42l.028-2.044c.028-1.092.112-2.464.252-3.276zm40.46 13.3c0 4.368-4.48 6.664-11.424 7.448l2.016 3.472c7.784-1.064 13.328-4.788 13.328-10.78 0-4.396-3.108-6.916-7.532-6.916-3.276 0-6.412.812-8.456 1.288-.924.196-2.128.392-3.08.476l1.064 4.004c.812-.308 1.904-.756 2.716-.98 1.428-.42 4.2-1.372 7.28-1.372 2.632 0 4.088 1.512 4.088 3.36zm-11.004-13.44l-.56 3.36c3.22.56 9.296 1.12 12.572 1.344l.56-3.444c-2.968-.028-9.324-.56-12.572-1.26zm41.636 15.4h2.856l.756-9.576.14-4.172h-4.648l.14 4.172.756 9.576zm1.428 7.448c1.4 0 2.464-1.008 2.464-2.464 0-1.484-1.064-2.492-2.464-2.492s-2.464 1.008-2.464 2.492c0 1.456 1.036 2.464 2.464 2.464z"/></g><path d="M44.884 76.298c-.216 1.836-.558 3.456-1.08 4.86l-1.332-.9.864-3.96h1.548zm.846-2.016l-.36.054h-1.62l.63-3.384-2.016-.18-.612 3.564H39.97v1.962h1.404l-1.296 5.58 1.764.918.144-.558.972.738c-.756 1.314-1.728 2.322-2.934 2.952a7.47 7.47 0 0 1 1.278 1.692c1.332-.828 2.412-1.89 3.276-3.294.648.612 1.206 1.206 1.584 1.71l1.296-1.728c-.45-.576-1.152-1.224-1.944-1.872.828-2.07 1.314-4.68 1.512-7.956l-1.296-.198zm10.944 3.6h-3.96v-1.026c1.26-1.188 2.592-2.862 3.546-4.266l-1.404-1.044-.432.108h-7.038v1.98h5.598c-.504.756-1.134 1.548-1.728 2.16h-.666v2.088h-3.798v2.016h3.798v5.256c0 .252-.09.324-.396.324-.288.018-1.242 0-2.16-.036.306.594.666 1.512.774 2.106 1.314.018 2.286-.054 3.006-.396.702-.324.9-.9.9-1.98v-5.274h3.96v-2.016zm4.104-1.026l.126 2.124c2.718.162 5.616.162 7.83.018.288.612.63 1.242 1.008 1.872l-2.268-.216-.18 1.71 4.266.576 1.098-1.656c-.324-.306-.576-.576-.81-.918-.324-.468-.63-1.026-.936-1.602a24.12 24.12 0 0 0 2.88-.558l-.36-2.124c-.882.234-1.962.54-3.438.72l-.306-.81-.27-.846a26.24 26.24 0 0 0 3.312-.666l-.288-2.07a20.69 20.69 0 0 1-3.546.774l-.324-1.89-2.412.27.576 1.782c-1.656.054-3.492-.018-5.634-.27l.126 2.07c2.268.216 4.374.252 6.066.162l.36 1.062.234.63c-1.998.126-4.428.108-7.11-.144zm3.456 4.176l-2.232-.432c-.414.864-.81 1.746-.774 2.898.036 2.574 2.268 3.636 5.868 3.636 1.476 0 3.114-.126 4.374-.342l.126-2.286c-1.278.252-2.808.396-4.518.396-2.376 0-3.636-.54-3.636-1.872 0-.774.36-1.404.792-1.998zm21.312-9.522l-2.484-.252c-.036.936-.234 2.016-.486 3.006-.558.054-1.098.072-1.638.072a22.74 22.74 0 0 1-2.394-.126l.162 2.088 2.25.072.936-.018c-.792 1.944-2.25 4.59-3.672 6.354l2.178 1.116c1.458-2.034 2.988-5.184 3.852-7.704l3.15-.63-.072-2.088c-.702.216-1.548.414-2.43.576l.648-2.466zm-.936 12.456c0-.63.666-1.098 1.71-1.098.504 0 .99.072 1.458.18v.36c0 .99-.378 1.674-1.62 1.674-.99 0-1.548-.45-1.548-1.116zm5.148-6.858h-2.25l.198 4.032-1.242-.072c-2.502 0-3.978 1.35-3.978 3.114 0 1.98 1.764 2.97 3.996 2.97 2.556 0 3.474-1.296 3.474-2.97v-.18c.99.594 1.8 1.35 2.43 1.926l1.206-1.926c-.918-.828-2.178-1.728-3.726-2.304l-.108-2.286v-2.304zm3.096.954l1.278-1.89c-.918-.666-3.15-1.89-4.446-2.448l-1.152 1.782c1.224.558 3.276 1.728 4.32 2.556zm14.292-4.032c-.594.666-1.332 1.26-2.178 1.782-.918-.522-1.728-1.116-2.376-1.782h4.554zm1.872-1.908l-.378.09h-4.59c.252-.342.486-.702.702-1.062l-2.358-.414c-.9 1.602-2.628 3.312-5.274 4.5.486.342 1.188 1.08 1.512 1.584.918-.486 1.746-1.026 2.484-1.584a13.59 13.59 0 0 0 1.89 1.62c-1.872.81-3.996 1.368-6.156 1.674a8.71 8.71 0 0 1 .99 1.908c2.574-.468 5.076-1.224 7.218-2.358 2.016.99 4.374 1.674 7.02 2.034.27-.54.828-1.44 1.26-1.908-2.304-.252-4.41-.72-6.228-1.404 1.386-1.044 2.556-2.304 3.366-3.852l-1.458-.828zm3.942 10.476v-1.89h-6.948v-1.494h-2.16v1.494h-6.894v1.89h5.31c-1.476 1.314-3.654 2.448-5.742 3.024.45.432 1.062 1.224 1.386 1.746 2.142-.774 4.338-2.16 5.94-3.816v4.014h2.16v-4.032a16.48 16.48 0 0 0 5.976 3.726c.306-.504.954-1.35 1.422-1.782-2.07-.558-4.23-1.62-5.724-2.88h5.274zm6.282-11.772c-.882 2.556-2.412 5.112-3.996 6.732a14.63 14.63 0 0 1 1.152 2.232l1.08-1.296v9.054h2.034v-12.24c.684-1.242 1.278-2.556 1.764-3.834l-2.034-.648zm12.942 8.604h-4.608v-3.096h3.762v-2.088h-3.762v-3.258h-2.16v3.258h-1.494l.522-2.07-2.07-.432c-.414 2.196-1.152 4.482-2.124 5.886.522.234 1.458.738 1.854 1.026.396-.63.792-1.44 1.116-2.322h2.196v3.096h-4.86v2.088h4.86v6.048h2.16v-6.048h4.608V79.43zm2.808-5.778l.234 2.466c2.088-.45 5.76-.846 7.452-1.026-1.224.918-2.682 2.97-2.682 5.562 0 3.906 3.564 5.922 7.344 6.174l.846-2.466c-3.06-.162-5.832-1.224-5.832-4.194 0-2.142 1.638-4.464 3.816-5.04.954-.234 2.502-.234 3.474-.252l-.018-2.304-5.094.324-7.776.666a27.22 27.22 0 0 1-1.764.09zm12.078 2.988l-1.332.558c.576.81.954 1.512 1.404 2.502l1.368-.612c-.342-.702-.99-1.8-1.44-2.448zm2.016-.828l-1.314.612c.576.792.99 1.458 1.476 2.43l1.35-.648c-.378-.702-1.062-1.764-1.512-2.394zm10.026 6.138l-1.764.558v-3.6h1.62v-1.962h-1.62v-3.168h1.926V71.78h-5.94v1.998h1.98v3.168h-1.818v1.962h1.818v4.23l-2.196.594.486 2.178 5.868-1.944-.36-2.016zm2.772-5.436h1.854v1.548h-1.854v-1.548zm0-3.186h1.854v1.512h-1.854v-1.512zm5.436 1.512h-1.782v-1.512h1.782v1.512zm0 3.222h-1.782v-1.548h1.782v1.548zm-1.584 7.002v-1.71h3.816v-1.926h-3.816V79.88h3.618v-8.37h-9.396v8.37h3.6v1.548h-3.726v1.926h3.726v1.71h-4.968v1.944h11.574v-1.944h-4.428zm16.902-6.48h3.312v1.08h-3.312v-1.08zm0-2.61h3.312v1.044h-3.312v-1.044zm0-2.628h3.312v1.044h-3.312v-1.044zm-3.78 8.694c.81.756 1.872 1.854 2.376 2.502l1.548-1.296c-.432-.504-1.206-1.26-1.908-1.908h7.128v-9.684h-7.308v9.522l-.36-.324-1.476 1.188zm-3.438-.486h2.034v-3.762l1.728 1.692 1.116-1.71a34.47 34.47 0 0 0-2.844-1.98v-.666h2.538V73.31h-2.538v-2.538h-2.034v2.538h-2.952v1.818h2.61c-.702 1.566-1.872 3.132-3.06 4.014.432.342 1.062 1.008 1.368 1.476.738-.648 1.422-1.548 2.034-2.61v3.546zm-1.314 5.022c.63-1.044 1.152-2.646 1.512-3.924l-1.908-.756c-.306 1.278-.918 2.754-1.566 3.708l1.962.972zm5.436-1.26c-.972 0-1.152-.072-1.152-.612v-2.43h-2.124v2.466c0 1.872.63 2.466 3.078 2.466h3.24c1.98 0 2.574-.63 2.844-3.204-.594-.108-1.494-.414-1.926-.756-.108 1.818-.234 2.07-1.08 2.07h-2.88zm5.382-2.79l2.124 3.744 1.998-1.026c-.486-.936-1.53-2.466-2.25-3.582l-1.872.864zm22.212-2.862c0-3.924-2.808-7.02-7.272-7.02-4.662 0-8.262 3.546-8.262 7.704 0 3.042 1.656 5.238 3.654 5.238 1.962 0 3.51-2.232 4.59-5.868.522-1.692.828-3.348 1.08-4.878 2.43.414 3.78 2.268 3.78 4.752 0 2.628-1.8 4.284-4.104 4.824-.486.108-.99.216-1.674.288l1.35 2.142c4.536-.702 6.858-3.384 6.858-7.182zm-13.23.45c0-1.98 1.602-4.608 4.572-5.22a27.02 27.02 0 0 1-.954 4.356c-.738 2.43-1.44 3.564-2.196 3.564-.702 0-1.422-.882-1.422-2.7zm28.404 5.166c-.558 0-.648-.09-.648-.684v-4.374h4.716v-2.07h-6.93v-2.916h5.526v-2.052h-5.526v-2.43h-2.178v2.43h-2.322l.54-1.746-2.196-.432c-.378 1.836-1.224 4.266-2.394 5.742.504.198 1.404.63 1.89.936.504-.666.972-1.53 1.386-2.448h3.096v2.916h-6.894v2.07h4.248c-.27 2.376-.954 4.392-4.536 5.562.486.45 1.08 1.314 1.332 1.89 4.14-1.566 5.058-4.248 5.454-7.452h2.628v4.374c0 2.034.468 2.7 2.484 2.7h2.088c1.674 0 2.25-.774 2.466-3.618-.576-.144-1.512-.504-1.944-.864-.072 2.124-.18 2.466-.72 2.466h-1.566zm10.764-2.178v-.594h3.132v.594h-3.132zm0-2.16h3.132v.576h-3.132v-.576zm8.532 0v.576h-3.294v-.576h3.294zm0 2.16h-3.294v-.594h3.294v.594zm3.582 1.602h-6.876v-.576h5.382v-4.23h-5.382v-.522h6.3v-1.35h-6.3v-.396h1.8v-1.188h5.058v-1.206h-5.058v-.576h4.41v-1.17h-4.41v-.576h4.716v-1.206h-4.716v-.936h-1.962v6.282h-1.944v.972h-1.962c1.602-.792 2.178-1.962 2.178-3.33v-3.942h-1.926v.954h-4.68v1.206h4.68v.576h-4.266v1.17h4.266v.018c0 .162 0 .306-.018.45l-5.202.234.126 1.242 4.518-.288c-.45.432-1.26.738-2.664.882.198.198.45.522.684.828h-1.926v1.35h6.192v.522h-5.148v4.23h5.148v.576h-6.894v1.404h6.894v1.44h2.106v-1.44h6.876v-1.404zm10.71-13.14l-2.376-.198c-.036.648-.162 1.35-.36 2.07h-.864c-.918 0-2.25-.072-3.168-.216v2.106c.99.072 2.304.108 3.042.108h.234c-.81 1.62-2.088 3.222-3.978 4.968l1.926 1.44c.612-.792 1.134-1.44 1.674-1.98.684-.666 1.8-1.242 2.808-1.242.504 0 .99.162 1.26.612-2.052 1.062-4.212 2.502-4.212 4.806 0 2.322 2.088 3.006 4.914 3.006 1.692 0 3.906-.144 5.094-.306l.072-2.322c-1.584.306-3.582.504-5.112.504-1.764 0-2.61-.27-2.61-1.26 0-.9.72-1.602 2.07-2.376-.018.792-.036 1.656-.09 2.196h2.16l-.072-3.168c1.098-.504 2.124-.9 2.934-1.224.612-.234 1.566-.594 2.142-.756l-.9-2.088c-.666.342-1.296.63-1.998.936l-2.43 1.062c-.396-.918-1.296-1.386-2.394-1.386-.594 0-1.566.144-2.034.36.36-.522.72-1.17 1.026-1.836 1.944-.054 4.158-.198 5.868-.45l.018-2.088c-1.584.27-3.384.432-5.094.522a17.22 17.22 0 0 0 .45-1.8zm18.558 1.836h6.804v1.746h1.89v-3.564h-10.512v3.672h1.818V73.4zm.9.432c-.108 2.034-.45 3.06-3.078 3.654.36.36.846 1.062 1.026 1.512 3.24-.828 3.834-2.43 3.996-5.166h-1.944zm-3.294 4.464l-1.458.414v-2.592h1.638v-1.962h-1.638v-3.384h-1.944v3.384h-1.89v1.962h1.89v3.114l-2.178.522.468 2.052 1.71-.486v3.978c0 .234-.09.306-.306.306-.216.018-.846.018-1.494-.018.252.576.486 1.458.54 1.98 1.188.018 1.944-.054 2.502-.396.54-.342.702-.882.702-1.872v-4.554c.576-.162 1.152-.342 1.728-.522l-.27-1.926zm11.124 3.654v-1.908h-4.338v-1.71c.306.18.738.252 1.35.252h1.422c1.188 0 1.674-.486 1.854-2.376-.504-.09-1.296-.378-1.656-.666-.036 1.188-.108 1.35-.432 1.35h-.864c-.324 0-.396-.036-.396-.486v-2.592h-1.908v2.61c0 .936.108 1.512.54 1.836h-2.034v1.782h-4.266v1.908h3.114c-1.008 1.458-2.556 2.736-4.212 3.42.468.396 1.062 1.152 1.368 1.638 1.53-.792 2.934-2.07 3.996-3.582v4.122h2.124v-4.104c.972 1.386 2.178 2.628 3.438 3.402.324-.504.972-1.26 1.44-1.638-1.386-.702-2.772-1.944-3.744-3.258h3.204zm15.534-10.08h-2.412c.054.36.126 1.206.126 1.656v2.034l-4.914.45.018-1.728c0-.756.018-1.26.108-1.872h-2.538c.09.648.144 1.26.144 1.998v1.818l-1.368.126c-.918.09-1.746.126-2.268.126l.252 2.304 2.16-.324 1.206-.126.018 4.194c.09 3.114.648 4.086 5.31 4.086 1.71 0 3.924-.144 5.13-.288l.09-2.448c-1.35.234-3.618.45-5.382.45-2.7 0-2.862-.396-2.898-2.16-.036-.774-.018-2.43 0-4.086l4.896-.45c-.018.864-.072 1.692-.144 2.178-.036.342-.198.414-.558.414s-1.098-.108-1.656-.234l-.054 1.998c.63.09 2.07.27 2.718.27.918 0 1.368-.234 1.566-1.188.144-.756.216-2.232.27-3.6.522-.036.99-.054 1.386-.072.468-.018 1.422-.036 1.728-.018v-2.214c-.522.054-1.224.09-1.728.126-.414.018-.864.054-1.35.09l.036-1.944c.018-.486.072-1.278.108-1.566zm10.242 12.096c0-.612.702-1.116 1.98-1.116.504 0 .99.054 1.476.126.018.324.018.576.018.774 0 1.044-.63 1.314-1.584 1.314-1.242 0-1.89-.414-1.89-1.098zm5.634-12.528h-2.43c.072.342.108.9.108 1.242v.846h-.702c-1.098 0-3.15-.18-4.446-.396l.054 2.052a41.38 41.38 0 0 0 4.41.324h.666c-.018.612-.018 1.26-.018 1.854h-.864c-.954 0-3.168-.126-4.338-.342l.018 2.124c1.188.144 3.24.234 4.284.234h.936l.072 1.674c-.36-.036-.738-.054-1.116-.054-2.772 0-4.446 1.278-4.446 3.096 0 1.908 1.512 3.006 4.392 3.006 2.376 0 3.546-1.188 3.546-2.718 0-.198 0-.414-.018-.666 1.44.648 2.664 1.602 3.636 2.502l1.296-2.016c-1.044-.864-2.772-2.07-5.04-2.718-.054-.72-.09-1.458-.126-2.142 1.728-.054 3.132-.18 4.752-.36l.018-2.124c-1.458.198-2.988.342-4.806.432v-1.854a68.32 68.32 0 0 0 4.572-.396l.018-2.07c-1.584.27-3.078.414-4.554.486 0-.288 0-.558.018-.738.018-.468.054-.918.108-1.278zm19.908.054h-2.61c.054.216.126.828.18 1.566.018.144.018.324.036.558l-7.776.108.054 2.178a185.54 185.54 0 0 1 7.74-.27c.018.396.018.81.018 1.206a4.67 4.67 0 0 0-.72-.054c-1.962 0-3.6 1.332-3.6 3.366 0 2.196 1.71 3.312 3.096 3.312a3.85 3.85 0 0 0 .81-.09c-.99 1.08-2.574 1.674-4.392 2.052l1.926 1.908c4.392-1.224 5.76-4.212 5.76-6.552 0-.936-.216-1.782-.648-2.466l-.018-2.7c2.448 0 4.122.036 5.202.09l.018-2.124c-.936-.018-3.402.018-5.22.018.018-.216.018-.414.018-.558.018-.288.09-1.26.126-1.548zm-4.518 8.622c0-.954.684-1.44 1.386-1.44.486 0 .918.216 1.17.63.252 1.584-.414 2.16-1.17 2.16-.72 0-1.386-.522-1.386-1.35z" fill="#5d5fef"/></g><defs><clipPath id="A"><path fill="#fff" d="M0 0h680v320H0z"/></clipPath><clipPath id="B"><path fill="#fff" transform="translate(329 44)" d="M0 0h403v264H0z"/></clipPath><path id="C" d="M560.825 261.867h-1.841c-.124 0-.224.101-.224.225v.925c0 .124.1.225.224.225h1.841c.124 0 .224-.101.224-.225v-.925c0-.124-.1-.225-.224-.225z"/><path id="D" d="M551.668 261.867h-1.841c-.124 0-.224.101-.224.225v.925c0 .124.1.225.224.225h1.841c.123 0 .224-.101.224-.225v-.925c0-.124-.101-.225-.224-.225z"/><path id="E" d="M547.088 261.867h-1.84c-.124 0-.225.101-.225.225v.925c0 .124.101.225.225.225h1.84c.124 0 .225-.101.225-.225v-.925c0-.124-.101-.225-.225-.225z"/><path id="F" d="M533.352 261.867h-1.841c-.123 0-.224.101-.224.225v.925c0 .124.101.225.224.225h1.841c.124 0 .224-.101.224-.225v-.925c0-.124-.1-.225-.224-.225z"/><path id="G" d="M579.291 152.909c1.504 0 2.724-1.247 2.724-2.786s-1.22-2.785-2.724-2.785-2.725 1.247-2.725 2.785 1.22 2.786 2.725 2.786z"/><path id="H" d="M475.175 167.023h2.399c.35 0 .686.139.933.387a1.32 1.32 0 0 1 0 1.866 1.32 1.32 0 0 1-.933.386h-2.399a1.32 1.32 0 0 1-1.319-1.319c0-.35.139-.686.387-.933s.582-.387.932-.387z"/><path id="I" d="M502.648 167.023h2.399c.35 0 .685.139.932.387s.387.583.387.933a1.32 1.32 0 0 1-1.319 1.319h-2.399a1.32 1.32 0 0 1-1.319-1.319 1.32 1.32 0 0 1 1.319-1.32z"/><path id="J" d="M510.432 167.023h2.399a1.32 1.32 0 0 1 1.319 1.32 1.32 1.32 0 0 1-1.319 1.319h-2.399a1.32 1.32 0 0 1-1.319-1.319c0-.35.139-.686.387-.933s.582-.387.932-.387z"/><path id="K" d="M482.648 166.803h14.926a1.32 1.32 0 0 1 1.319 1.319 1.32 1.32 0 0 1-1.319 1.319h-14.926a1.32 1.32 0 0 1-1.319-1.319 1.32 1.32 0 0 1 1.319-1.319z"/><path id="L" d="M482.501 172.979h2.4a1.32 1.32 0 0 1 1.318 1.319 1.32 1.32 0 0 1-1.318 1.319h-2.4a1.32 1.32 0 0 1-1.318-1.319 1.32 1.32 0 0 1 1.318-1.319z"/><path id="M" d="M509.973 172.979h2.399a1.32 1.32 0 0 1 1.319 1.319 1.32 1.32 0 0 1-1.319 1.319h-2.399a1.32 1.32 0 0 1-1.319-1.319c0-.35.139-.686.387-.933a1.32 1.32 0 0 1 .932-.386z"/><path id="N" d="M489.974 172.758h14.927a1.32 1.32 0 0 1 1.318 1.319 1.32 1.32 0 0 1-.386.933c-.247.248-.583.387-.932.387h-14.927c-.35 0-.685-.139-.932-.387s-.387-.583-.387-.933a1.32 1.32 0 0 1 1.319-1.319z"/><path id="O" d="M526.604 172.758h14.926a1.32 1.32 0 0 1 1.319 1.319 1.32 1.32 0 0 1-.386.933c-.247.248-.583.387-.933.387h-14.926a1.32 1.32 0 0 1-1.319-1.32 1.32 1.32 0 0 1 1.319-1.319z"/><path id="P" d="M497.3 178.715h14.927a1.32 1.32 0 0 1 1.318 1.319 1.32 1.32 0 0 1-.386.933c-.247.248-.583.387-.932.387H497.3c-.35 0-.685-.139-.932-.387s-.387-.583-.387-.933a1.32 1.32 0 0 1 1.319-1.319z"/><path id="Q" d="M489.827 196.664h2.4a1.32 1.32 0 0 1 .932.386c.247.248.386.584.386.933a1.32 1.32 0 0 1-.386.933c-.247.248-.583.387-.932.387h-2.4c-.349 0-.685-.139-.932-.387a1.32 1.32 0 0 1-.386-.933c0-.349.139-.685.386-.933a1.32 1.32 0 0 1 .932-.386z"/><path id="R" d="M524.625 190.709h2.4a1.32 1.32 0 0 1 1.318 1.319 1.32 1.32 0 0 1-.386.933c-.247.248-.583.387-.932.387h-2.4c-.349 0-.685-.139-.932-.387a1.32 1.32 0 0 1 0-1.866 1.32 1.32 0 0 1 .932-.386z"/></defs></svg>