<svg width="44" height="44" viewBox="0 0 44 44" fill="none" xmlns="http://www.w3.org/2000/svg">
<path fill-rule="evenodd" clip-rule="evenodd" d="M0.806641 22.0002C0.806641 16.3793 3.03953 10.9887 7.0141 7.0141C10.9887 3.03953 16.3793 0.806641 22.0002 0.806641C27.6211 0.806641 33.0118 3.03953 36.9864 7.0141C40.961 10.9887 43.1938 16.3793 43.1938 22.0002C43.1938 27.6211 40.961 33.0118 36.9864 36.9864C33.0118 40.961 27.6211 43.1938 22.0002 43.1938C16.3793 43.1938 10.9887 40.961 7.0141 36.9864C3.03953 33.0118 0.806641 27.6211 0.806641 22.0002ZM22.0002 3.84664C17.1856 3.84664 12.5682 5.75925 9.16371 9.16371C5.75925 12.5682 3.84664 17.1856 3.84664 22.0002C3.84664 26.8149 5.75925 31.4323 9.16371 34.8368C12.5682 38.2412 17.1856 40.1538 22.0002 40.1538C26.8149 40.1538 31.4323 38.2412 34.8368 34.8368C38.2412 31.4323 40.1538 26.8149 40.1538 22.0002C40.1538 17.1856 38.2412 12.5682 34.8368 9.16371C31.4323 5.75925 26.8149 3.84664 22.0002 3.84664ZM29.533 14.4706C29.833 14.7707 30.0015 15.1776 30.0015 15.6018C30.0015 16.0261 29.833 16.433 29.533 16.733L24.2626 22.0002L29.533 27.2674C29.8335 27.5679 30.0023 27.9754 30.0023 28.4002C30.0023 28.8251 29.8335 29.2326 29.533 29.533C29.2326 29.8335 28.8251 30.0023 28.4002 30.0023C27.9754 30.0023 27.5679 29.8335 27.2674 29.533L22.0002 24.2626L16.733 29.533C16.5843 29.6818 16.4077 29.7998 16.2133 29.8803C16.0189 29.9608 15.8106 30.0023 15.6002 30.0023C15.3899 30.0023 15.1815 29.9608 14.9872 29.8803C14.7928 29.7998 14.6162 29.6818 14.4674 29.533C14.3187 29.3843 14.2007 29.2077 14.1202 29.0133C14.0397 28.8189 13.9982 28.6106 13.9982 28.4002C13.9982 28.1899 14.0397 27.9815 14.1202 27.7872C14.2007 27.5928 14.3187 27.4162 14.4674 27.2674L19.7378 22.0002L14.4674 16.733C14.167 16.4326 13.9982 16.0251 13.9982 15.6002C13.9982 15.1754 14.167 14.7679 14.4674 14.4674C14.7679 14.167 15.1754 13.9982 15.6002 13.9982C16.0251 13.9982 16.4326 14.167 16.733 14.4674L22.0002 19.7378L27.2674 14.4674C27.4161 14.3184 27.5926 14.2002 27.787 14.1196C27.9814 14.0389 28.1898 13.9974 28.4002 13.9974C28.6107 13.9974 28.8191 14.0389 29.0135 14.1196C29.2079 14.2002 29.3844 14.3184 29.533 14.4674V14.4706Z" fill="#03BCDB"/>
</svg>
