<svg width="33" height="25" viewBox="0 0 33 25" fill="none" xmlns="http://www.w3.org/2000/svg">
<path d="M23.5 9C23.5 4.1875 18.3594 0.25 12.125 0.25C5.83594 0.25 0.75 4.1875 0.75 9C0.75 10.9141 1.51562 12.6094 2.82812 14.0312C2.0625 15.7266 0.859375 17.0391 0.859375 17.0391C0.75 17.1484 0.695312 17.3672 0.75 17.5312C0.859375 17.6953 0.96875 17.75 1.1875 17.75C3.15625 17.75 4.79688 17.0938 6 16.3828C7.75 17.2578 9.88281 17.75 12.125 17.75C18.3594 17.75 23.5 13.8672 23.5 9ZM30.1719 21.0312C31.4297 19.6094 32.25 17.9141 32.25 16C32.25 12.3906 29.2969 9.21875 25.1406 7.90625C25.1953 8.28906 25.25 8.67188 25.25 9C25.25 14.7969 19.3438 19.5 12.125 19.5C11.5234 19.5 10.9219 19.5 10.375 19.4453C12.0703 22.5625 16.1172 24.75 20.875 24.75C23.1172 24.75 25.1953 24.2578 26.9453 23.3828C28.1484 24.0938 29.7891 24.75 31.8125 24.75C31.9766 24.75 32.1406 24.6953 32.1953 24.5312C32.25 24.3672 32.25 24.1484 32.0859 24.0391C32.0859 24.0391 30.8828 22.7266 30.1719 21.0312Z" fill="#03BCDB"/>
<a href="https://www.figma.com/file/ZQaFoFbpO4wpNfLo7JE3Cr/?node-id=3310%3A58">
<rect fill="black" fill-opacity="0" x="-2.25" y="0.4" width="31.5" height="32.2"/>
</a>
</svg>
