<svg width="27" height="29" viewBox="0 0 27 29" fill="none" xmlns="http://www.w3.org/2000/svg">
<path d="M26.5833 6.64583V24.1667C26.5833 26.825 24.4083 29 21.75 29H12.9292C11.6242 29 10.3917 28.4804 9.48542 27.5621L0 17.9196C0 17.9196 1.5225 16.4333 1.57083 16.4092C1.83667 16.1796 2.16292 16.0588 2.52542 16.0588C2.79125 16.0588 3.03292 16.1313 3.25042 16.2521C3.29875 16.2642 8.45833 19.2246 8.45833 19.2246V4.83333C8.45833 3.83042 9.26791 3.02083 10.2708 3.02083C11.2737 3.02083 12.0833 3.83042 12.0833 4.83333V13.2917H13.2917V1.8125C13.2917 0.809583 14.1012 0 15.1042 0C16.1071 0 16.9167 0.809583 16.9167 1.8125V13.2917H18.125V3.02083C18.125 2.01792 18.9346 1.20833 19.9375 1.20833C20.9404 1.20833 21.75 2.01792 21.75 3.02083V13.2917H22.9583V6.64583C22.9583 5.64292 23.7679 4.83333 24.7708 4.83333C25.7737 4.83333 26.5833 5.64292 26.5833 6.64583Z" fill="#03BCDB"/>
</svg>
