<svg width="18" height="15" viewBox="0 0 18 15" fill="none" xmlns="http://www.w3.org/2000/svg">
<path d="M8.99998 14.5003C8.8903 14.5009 8.78158 14.4799 8.68005 14.4384C8.57852 14.3969 8.48618 14.3358 8.40831 14.2586L1.93331 7.77526C1.12111 6.95457 0.665527 5.84656 0.665527 4.69192C0.665527 3.53728 1.12111 2.42928 1.93331 1.60859C2.75186 0.79235 3.86067 0.333984 5.01664 0.333984C6.17262 0.333984 7.28142 0.79235 8.09998 1.60859L8.99998 2.50859L9.89997 1.60859C10.7185 0.79235 11.8273 0.333984 12.9833 0.333984C14.1393 0.333984 15.2481 0.79235 16.0666 1.60859C16.8788 2.42928 17.3344 3.53728 17.3344 4.69192C17.3344 5.84656 16.8788 6.95457 16.0666 7.77526L9.59164 14.2586C9.51377 14.3358 9.42143 14.3969 9.3199 14.4384C9.21837 14.4799 9.10965 14.5009 8.99998 14.5003ZM5.01664 2.00026C4.66387 1.99866 4.31429 2.06708 3.98815 2.20154C3.66201 2.336 3.36578 2.53384 3.11664 2.78359C2.61336 3.28953 2.33084 3.97413 2.33084 4.68776C2.33084 5.40139 2.61336 6.08599 3.11664 6.59192L8.99998 12.4836L14.8833 6.59192C15.3866 6.08599 15.6691 5.40139 15.6691 4.68776C15.6691 3.97413 15.3866 3.28953 14.8833 2.78359C14.3697 2.29835 13.6899 2.02801 12.9833 2.02801C12.2767 2.02801 11.5969 2.29835 11.0833 2.78359L9.59164 4.28359C9.51417 4.3617 9.42201 4.42369 9.32046 4.466C9.21891 4.50831 9.10999 4.53009 8.99998 4.53009C8.88997 4.53009 8.78104 4.50831 8.67949 4.466C8.57795 4.42369 8.48578 4.3617 8.40831 4.28359L6.91664 2.78359C6.6675 2.53384 6.37128 2.336 6.04514 2.20154C5.71899 2.06708 5.36941 1.99866 5.01664 2.00026Z" fill="#03BCDB"/>
</svg>
