<svg width="30" height="30" viewBox="0 0 30 30" fill="none" xmlns="http://www.w3.org/2000/svg">
<path d="M13.408 3.01741C14.0834 1.73734 15.9166 1.73735 16.592 3.01741L19.1717 7.90687C19.4322 8.40051 19.9069 8.74541 20.4568 8.84056L25.9042 9.78309C27.3303 10.0298 27.8968 11.7734 26.8881 12.8113L23.0351 16.7756C22.6461 17.1759 22.4648 17.7339 22.5442 18.2864L23.3311 23.7584C23.5372 25.1909 22.054 26.2685 20.7552 25.6299L15.7942 23.1905C15.2934 22.9443 14.7066 22.9443 14.2058 23.1905L9.24477 25.6299C7.94598 26.2685 6.46283 25.1909 6.66885 23.7584L7.45577 18.2864C7.53522 17.7339 7.3539 17.1759 6.9649 16.7756L3.11192 12.8113C2.10321 11.7734 2.66972 10.0298 4.09584 9.78309L9.54317 8.84056C10.0931 8.74541 10.5678 8.40051 10.8283 7.90687L13.408 3.01741Z" fill="#FFDA58"/>
<path d="M15 7L17.4452 11.6345L22.6085 12.5279L18.9564 16.2855L19.7023 21.4721L15 19.16L10.2977 21.4721L11.0436 16.2855L7.39155 12.5279L12.5548 11.6345L15 7Z" fill="white"/>
</svg>
