<svg width="26" height="24" viewBox="0 0 26 24" fill="none" xmlns="http://www.w3.org/2000/svg">
<path d="M11.408 1.01741C12.0834 -0.262655 13.9166 -0.262653 14.592 1.01741L17.1717 5.90687C17.4322 6.40051 17.9069 6.74541 18.4568 6.84056L23.9042 7.78309C25.3303 8.02984 25.8968 9.77339 24.8881 10.8113L21.0351 14.7756C20.6461 15.1759 20.4648 15.7339 20.5442 16.2864L21.3311 21.7584C21.5372 23.1909 20.054 24.2685 18.7552 23.6299L13.7942 21.1905C13.2934 20.9443 12.7066 20.9443 12.2058 21.1905L7.24477 23.6299C5.94598 24.2685 4.46283 23.1909 4.66885 21.7584L5.45577 16.2864C5.53522 15.7339 5.3539 15.1759 4.9649 14.7756L1.11192 10.8113C0.10321 9.77339 0.669722 8.02984 2.09584 7.78309L7.54317 6.84056C8.09313 6.74541 8.56784 6.40051 8.82828 5.90687L11.408 1.01741Z" fill="#FFDA58"/>
</svg>
